<svg width="1362.000000" height="188.745041" viewBox="0 0 1362 188.745" fill="none" xmlns="http://www.w3.org/2000/svg" xmlns:xlink="http://www.w3.org/1999/xlink">
	<desc>
			Created with Pixso.
	</desc>
	<defs>
		<clipPath id="clip10_358">
			<rect id="studposts" width="1362.000000" height="188.745041" fill="white" fill-opacity="0"/>
		</clipPath>
	</defs>
	<g clip-path="url(#clip10_358)">
		<path id="path" d="M583.92 149.73C570.42 166.03 551.93 172.95 531.06 173.89C511.46 174.77 491.78 174.05 472.15 174.33C467.25 174.4 465.87 172.82 465.9 168.26C466.19 139.68 466.23 111.09 466.36 82.52C470.04 70.36 473.97 58.24 477.34 46.02C480.13 35.86 484.56 26.04 484.9 15.32C490.91 14.44 496.97 13.72 501.79 9.63C520.13 8.86 538.46 8.35 556.2 14.08C564.32 16.7 571.54 20.72 577.28 26.94C575.71 28.03 575.41 29.55 575.59 31.26C577.67 49.54 578.44 67.89 578.78 86.26C579.05 101.69 581.02 117.02 580.97 132.49C580.96 138.03 580.79 144.34 583.92 149.73ZM505.16 90.86C505.16 106.09 505.09 121.33 505.23 136.56C505.25 138.94 503.83 141.98 508.07 143.18C523.17 147.46 546.07 139.81 553.99 126.77C567.03 105.27 567.76 82.9 556.8 60.41C550.12 46.74 538.36 40.26 522.66 40.16C519.82 40.14 516.93 40.45 514.13 40.09C507.24 39.17 504.68 41.35 504.99 48.41C505.59 62.54 505.16 76.71 505.16 90.86Z" fill="#BC47F5" fill-opacity="1.000000" fill-rule="nonzero"/>
		<path id="path" d="M958.01 19.21C966.56 12.55 975.9 7.76 987.26 7.64C992.3 12.19 999.11 12.47 1005.24 13.93C1021.31 17.77 1036.87 23.53 1053.39 25.65C1053.85 25.96 1054.41 26.17 1054.78 26.57C1067.64 40.53 1066.92 43.44 1049.17 49.22C1047.29 49.82 1045.34 50.28 1043.55 51.1C1036.06 54.57 1031.09 54.39 1026.05 46.08C1019.01 34.49 997.39 31.56 985.33 38.84C980.53 41.73 978.58 46.13 978.87 51.33C979.19 57.28 982.47 61.58 988.08 64.04C995.84 67.45 1004.29 68.93 1012.43 71.24C1021.38 73.79 1030.46 76.15 1039.1 79.48C1070.55 91.61 1079.81 129.85 1057.61 154.75C1044.42 154.14 1031.22 153.55 1018.03 152.94C1016.1 151.24 1014.18 149.55 1012.26 147.84C1013.79 147.17 1015.3 146.49 1016.84 145.84C1024.17 142.74 1029.18 137.71 1029.14 129.77C1029.13 121.88 1023.58 117.71 1016.34 115.28C998.72 109.35 980.26 105.81 963.2 98.26C951.93 72.47 949.53 46.18 958.01 19.21Z" fill="#D138FE" fill-opacity="1.000000" fill-rule="nonzero"/>
		<path id="path" d="M732.75 107.25C725.41 111.62 717.11 111.7 708.93 111.96C699.55 112.26 690.14 112.47 680.77 112C674.24 111.67 671.87 113.34 672.09 120C672.6 135.78 672.07 151.57 672.36 167.34C672.45 172.48 671.17 174.66 665.28 174.35C656.21 173.87 647.08 174.02 637.99 174.3C633.33 174.45 631.55 173.25 631.57 168.44C631.73 117.28 631.69 66.12 631.62 14.96C631.62 11.14 632.15 8.89 637.07 9.04C650.13 9.45 663.22 9.47 676.3 9.63C681.78 15.19 688.96 17.21 696.47 18.59C696.52 25.65 702.53 31.21 701.89 38.43C693.65 38.47 685.39 38.73 677.16 38.47C672.47 38.32 670.46 39.62 670.76 44.37C671.12 50.07 670.68 55.8 670.88 61.51C671.14 68.24 667.82 77.05 672.18 81.17C676.89 85.65 686.21 82.29 693.49 82.65C702.21 83.08 710.52 81.89 717.41 76.1C720.48 77.66 721.21 80.63 722.38 83.39C725.77 91.38 729.28 99.31 732.75 107.25Z" fill="#AC2DFE" fill-opacity="1.000000" fill-rule="nonzero"/>
		<path id="path" d="M917.34 59.74C927.11 93.45 924.35 125.7 902.22 154.36C876.34 187.85 818.51 185.16 794.48 150.04C787.27 139.5 781.82 128.19 780.3 115.46C794.13 112.55 805.86 104.61 819.22 100.6C820.45 112.21 821.5 123.85 827.99 134.19C835.89 146.77 853 150.4 864.78 141.92C872.48 136.38 875.93 128.44 877.8 119.74C881.06 104.77 881.6 89.69 879.88 74.51C892.96 70.95 905.15 65.35 917.34 59.74Z" fill="#DE59FE" fill-opacity="1.000000" fill-rule="nonzero"/>
		<path id="path" d="M819.22 100.6C805.86 104.63 794.13 112.55 780.3 115.46C773.41 83.4 777.17 53.11 799.18 27.03C825.5 -4.14 881.72 -0.96 904.69 32.43C910.46 40.81 915.53 49.61 917.34 59.74C905.15 65.35 892.97 70.95 879.9 74.48C878.47 65.88 877.12 57.23 872.39 49.56C862.07 32.84 838.72 32.52 828.13 48.95C825.73 52.66 824.19 56.72 822.83 60.92C818.64 73.93 819.9 87.33 819.22 100.6Z" fill="#BC47F5" fill-opacity="1.000000" fill-rule="nonzero"/>
		<path id="path" d="M433.5 94.12C433.78 107.96 434.32 121.76 432.31 135.61C429.54 154.82 417.7 166.49 399.49 172.59C378.51 179.63 356.96 179.63 335.76 173.71C312.85 167.29 300.83 150.68 299.16 125.13C302.38 125.62 305.24 124.24 308.25 123.55C319.16 121.01 329.74 116.8 341.24 117.02C341.57 118.89 341.93 120.76 342.23 122.65C345.84 144.33 370.73 154.17 389.97 141.65C396.8 137.2 398.98 130.74 399.33 123.4C399.71 115.8 399.84 108.2 400.1 100.6C411.69 100.56 422.18 95.34 433.5 94.12Z" fill="#BC47F5" fill-opacity="1.000000" fill-rule="nonzero"/>
		<path id="path" d="M240.76 41.93C240.78 83.32 240.66 124.73 240.93 166.12C240.97 172.31 239.59 174.94 232.56 174.4C224.64 173.79 216.59 173.82 208.67 174.4C201.95 174.89 200.72 172.36 200.75 166.5C201.01 128.1 200.7 89.69 201.04 51.3C201.11 44.18 199.7 40.94 191.41 41.72C183.22 42.47 174.88 41.45 166.67 42.01C159.83 42.49 157.25 40.3 158.69 33.89C172.12 32.03 185.45 29 199.14 30.37C213.69 31.85 228.25 33.58 240.76 41.93Z" fill="#D138FE" fill-opacity="1.000000" fill-rule="nonzero"/>
		<path id="path" d="M1313.72 169.05C1284.88 181.54 1256.36 181.32 1228.73 166.09C1216.93 159.59 1209.86 149.1 1205.56 136.78C1204.03 132.41 1205.31 131 1209.59 130.2C1218.24 128.57 1226.89 126.9 1235.37 124.67C1239.52 123.58 1241.04 124.21 1242.81 128.19C1250.67 145.94 1274.27 153.65 1292.27 144.77C1298.6 141.65 1302.28 136.89 1302.29 129.85C1302.31 122.93 1298.31 118.89 1292.04 116.21C1284.21 112.85 1275.87 111.08 1267.68 108.89C1257.26 106.1 1247.12 102.69 1237.44 97.95C1220.43 89.59 1212.67 76.23 1213.05 58.19C1214.97 58.69 1216.86 59.34 1218.8 59.62C1271.87 67.6 1315.76 116.03 1313.72 169.05Z" fill="#AC2DFE" fill-opacity="1.000000" fill-rule="nonzero"/>
		<path id="path" d="M25.21 81.11C17.85 80.01 19.25 73.11 18.93 69.57C18.02 59.8 17.45 49.91 20.8 40.01C27.35 20.64 50.39 5.89 70.7 5.87C87.2 5.85 103.9 4.41 119.02 13.06C129.05 18.8 137.1 26.19 141.93 36.55C144.06 41.11 143.45 43.96 137.9 45.64C128.31 48.51 119.65 53.78 109.72 55.81C103.81 37.01 81.83 32.36 65.27 39.98C60.33 42.24 59.33 45.88 59.34 50.41C59.36 55.13 60.06 59.03 65.2 61.79C74.56 66.79 84.95 68.5 95.05 71.09C97.43 71.7 99.15 72.46 100.6 74.16C98.79 76.9 96.99 79.65 95.16 82.39C91.59 83.01 88.61 81.09 85.38 80.29C65.23 75.28 45.15 73.39 25.21 81.11Z" fill="#6B01D7" fill-opacity="1.000000" fill-rule="nonzero"/>
		<path id="path" d="M1313.72 169.05C1315.76 116.03 1271.87 67.62 1218.79 59.61C1216.82 59.31 1214.93 58.65 1213.03 58.18C1209.98 35.96 1227.59 17 1246.13 9.47C1247.31 8.99 1248.89 9.37 1250.28 9.35C1253.48 18.77 1256.04 28.41 1260.89 37.24C1259.15 41.21 1254.16 42.96 1253.67 48.02C1252.75 57.54 1257.77 63.38 1270.06 66.35C1277.25 68.09 1284.62 69.32 1291.09 73.1C1298.28 79.48 1306.41 84.72 1315.35 88.31C1319.66 90.03 1323.85 94.07 1329.41 91.86C1329.06 94.14 1330.83 94.14 1332.33 94.14C1342.49 102.3 1344.58 113.52 1344.17 125.14C1343.56 142.92 1333.74 156.29 1319.78 167.13C1318.33 168.24 1316.25 169.9 1313.72 169.05Z" fill="#6B01D7" fill-opacity="1.000000" fill-rule="nonzero"/>
		<path id="path" d="M341.24 117C329.74 116.79 319.16 120.99 308.25 123.53C305.24 124.24 302.39 125.6 299.16 125.11C298.94 92.48 298.73 59.85 298.51 27.24C303.04 21.32 307.57 15.37 312.1 9.45C320.01 9.35 327.95 9.43 335.85 9.05C340.36 8.84 341.64 10.47 341.6 14.65C341.38 48.77 341.35 82.9 341.24 117Z" fill="#AC2DFE" fill-opacity="1.000000" fill-rule="nonzero"/>
		<path id="path" d="M1122.36 45.11C1119.27 38.25 1112.8 43.41 1108.32 41.47C1099.15 37.83 1089.44 35.92 1079.84 33.71C1079.82 25.91 1076.41 16.06 1081.1 10.89C1085.62 5.9 1096.09 9.4 1103.9 9.37C1134.51 9.22 1165.12 9.42 1195.73 9.48C1196.04 20.56 1194.87 31.41 1190.42 41.77C1183.69 41.75 1176.93 42.16 1170.26 41.6C1163.15 40.99 1160.49 43.5 1161.53 50.14C1161.77 51.69 1161.43 53.34 1161.36 54.94C1148.35 51.65 1135.35 48.38 1122.36 45.11Z" fill="#DE59FE" fill-opacity="1.000000" fill-rule="nonzero"/>
		<path id="path" d="M701.87 38.47C702.5 31.24 696.51 25.68 696.45 18.62C697.22 15.57 698.89 12.68 698.33 9.38C720.24 8.53 740.26 11.86 754.27 30.52C773.05 55.5 761.63 96.76 732.75 107.25C729.28 99.31 725.77 91.38 722.37 83.42C721.19 80.66 720.46 77.69 717.39 76.13C728.94 58.11 723.34 44.54 701.87 38.47Z" fill="#BC47F5" fill-opacity="1.000000" fill-rule="nonzero"/>
		<path id="path" d="M124.19 165.75C105.45 178.25 84.46 179.04 62.95 176.05C39.36 172.77 21.6 161.66 12.41 139.77C10.19 134.5 9.34 130.51 17.43 129.95C21.33 129.67 25.12 128.14 29.01 127.29C33.98 126.18 39.08 123.96 43.92 124.39C49.78 124.91 48.94 131.82 51.85 135.51C61.68 147.99 86.35 152.47 99.93 144.05C104.82 141.03 106.35 136.02 109.18 131.75C111.78 131.79 112.09 133.71 112.77 135.51C116.53 145.61 120.38 155.67 124.19 165.75Z" fill="#DE59FE" fill-opacity="1.000000" fill-rule="nonzero"/>
		<path id="path" d="M240.76 41.93C228.25 33.58 213.69 31.84 199.14 30.37C185.45 29 172.1 32.03 158.69 33.89C158.62 27.63 158.79 21.36 158.4 15.13C158.12 10.75 159.23 8.99 164.35 9.02C201.89 9.22 239.44 9.27 276.98 8.99C282.66 8.96 283.53 10.94 283.31 15.59C282.87 24.52 286.44 36.18 281.81 41.67C276.96 47.39 264.24 42.68 255 43.5C250.08 43.93 245.5 42.42 240.76 41.93Z" fill="#6B01D7" fill-opacity="1.000000" fill-rule="nonzero"/>
		<path id="path" d="M433.5 94.12C422.16 95.34 411.68 100.56 400.1 100.59C399.98 71.73 399.91 42.9 399.66 14.04C399.62 9.92 401.46 8.99 405.29 9.07C412.97 9.25 420.67 9.37 428.34 9.04C433.2 8.84 433.89 11.02 433.86 14.91C433.66 41.32 433.61 67.71 433.5 94.12Z" fill="#AC2DFE" fill-opacity="1.000000" fill-rule="nonzero"/>
		<path id="path" d="M124.19 165.75C120.38 155.67 116.53 145.59 112.79 135.5C112.12 133.69 111.8 131.77 109.19 131.74C108.99 129.74 108.77 127.72 108.56 125.72C108.22 124.99 107.88 124.27 107.53 123.55C106.88 122.45 106.21 121.35 105.57 120.25C108.43 117.25 105.36 114.72 104.6 112.22C101.52 102.26 95.85 93.05 95.18 82.39C96.99 79.65 98.79 76.9 100.61 74.16C138.54 80.65 158.09 110.91 144.59 142.62C140.45 152.3 133.88 160.36 124.19 165.75Z" fill="#D138FE" fill-opacity="1.000000" fill-rule="nonzero"/>
		<path id="path" d="M1161.53 82.7C1161.63 111.54 1161.68 140.37 1161.91 169.21C1161.93 173.13 1160.46 174.41 1156.43 174.33C1146.77 174.12 1137.1 174.05 1127.43 174.3C1122.71 174.43 1121.71 172.44 1121.78 168.45C1122.05 152.4 1122.1 136.37 1122.22 120.32C1125.31 117.59 1128.37 114.79 1131.55 112.16C1142.48 103.2 1149.81 90.92 1161.53 82.7Z" fill="#AC2DFE" fill-opacity="1.000000" fill-rule="nonzero"/>
		<path id="path" d="M1260.89 37.24C1256.04 28.39 1253.47 18.75 1250.28 9.35C1275 2.82 1298.62 4.02 1320.19 18.72C1327.8 23.91 1332.67 31.21 1336.53 39.24C1338.27 42.83 1337.59 44.57 1333.52 45.77C1325.38 48.17 1317.36 50.94 1309.31 53.62C1307.07 54.37 1304.93 55.21 1303.59 52.38C1294.61 33.74 1278.46 33.67 1260.89 37.24Z" fill="#DE59FE" fill-opacity="1.000000" fill-rule="nonzero"/>
		<path id="path" d="M583.92 149.73C580.77 144.34 580.96 138.03 580.97 132.51C581.02 117.03 579.05 101.7 578.78 86.28C578.45 67.91 577.67 49.56 575.59 31.28C575.41 29.57 575.71 28.04 577.28 26.96C589.54 36.99 598.24 49.43 601.62 64.41C608.62 95.12 606.7 124.49 583.92 149.73Z" fill="#AC2DFE" fill-opacity="1.000000" fill-rule="nonzero"/>
		<path id="path" d="M1161.53 82.7C1149.81 90.92 1142.48 103.2 1131.56 112.18C1128.37 114.8 1125.34 117.61 1122.24 120.33C1122.27 95.25 1122.3 70.18 1122.36 45.11C1135.35 48.38 1148.35 51.65 1161.34 54.93C1161.41 64.18 1161.48 73.44 1161.53 82.7Z" fill="#D138FE" fill-opacity="1.000000" fill-rule="nonzero"/>
		<path id="path" d="M95.16 82.37C95.85 93.04 101.5 102.25 104.58 112.21C105.36 114.72 108.41 117.25 105.55 120.23C95.52 114.29 84.29 111.52 73.03 108.63C58.73 104.97 44.77 100.39 32.97 91.31C29.41 88.59 26.03 85.72 25.19 81.09C45.15 73.38 65.22 75.26 85.38 80.25C88.61 81.07 91.59 82.99 95.16 82.37Z" fill="#DE59FE" fill-opacity="1.000000" fill-rule="nonzero"/>
		<path id="path" d="M1012.24 147.82C1014.16 149.53 1016.09 151.22 1018.01 152.93C1017.89 155.87 1015.17 155.73 1013.29 156.75C1003.3 162.15 992.84 166.96 985.4 175.79C976.55 176.64 968.39 175.05 961.47 169.36C965.89 154.67 966.37 139.83 963.01 124.9C966.45 122.07 968.82 123.48 969.99 126.93C975 141.54 986.24 146.77 1001.36 146.46C1005.05 146.36 1008.77 146.25 1012.24 147.82Z" fill="#6B01D7" fill-opacity="1.000000" fill-rule="nonzero"/>
		<path id="path" d="M985.4 175.79C992.84 166.96 1003.28 162.14 1013.29 156.75C1015.17 155.73 1017.89 155.87 1018.01 152.93C1031.19 153.53 1044.4 154.13 1057.59 154.73C1045.74 170.97 1027.92 175.71 1008.82 177.17C1001.09 177.76 993.01 179.09 985.4 175.79Z" fill="#BC47F5" fill-opacity="1.000000" fill-rule="nonzero"/>
		<path id="path" d="M963.03 124.88C966.39 139.83 965.91 154.65 961.48 169.34C947.05 162.99 938.24 151.98 932.59 138.11C930.46 132.9 931.89 130.9 937.44 130C946.02 128.59 954.5 126.62 963.03 124.88Z" fill="#DE59FE" fill-opacity="1.000000" fill-rule="nonzero"/>
		<path id="path" d="M958.01 19.21C949.53 46.18 951.93 72.47 963.2 98.26C930.29 85.31 932.83 32.9 958.01 19.21Z" fill="#6B01D7" fill-opacity="1.000000" fill-rule="nonzero"/>
		<path id="path" d="M484.92 15.32C484.58 26.04 480.15 35.86 477.36 46.02C473.99 58.26 470.07 70.36 466.38 82.52C466.26 59.72 466.21 36.92 465.94 14.13C465.88 10.17 467.35 8.76 471.35 9.1C474.74 9.4 478.14 9.35 481.55 9.47C481.46 12.04 483.98 13.26 484.92 15.32Z" fill="#AC2DFE" fill-opacity="1.000000" fill-rule="nonzero"/>
		<path id="path" d="M1053.4 25.63C1036.89 23.51 1021.31 17.75 1005.26 13.91C999.12 12.45 992.31 12.17 987.28 7.63C1008.63 1.13 1040.81 9.89 1053.4 25.63Z" fill="#DE59FE" fill-opacity="1.000000" fill-rule="nonzero"/>
		<path id="path" d="M1190.41 41.75C1194.85 31.39 1196.04 20.54 1195.72 9.47C1202.17 7.82 1205.1 9.58 1204.32 16.52C1203.69 22.17 1204.21 27.91 1204.21 33.61C1204.21 44.6 1201.82 46.02 1190.41 41.75Z" fill="#6B01D7" fill-opacity="1.000000" fill-rule="nonzero"/>
		<path id="path" d="M1329.43 91.84C1323.86 94.06 1319.68 90.03 1315.37 88.29C1306.43 84.7 1298.29 79.46 1291.11 73.08C1305.49 76.31 1320.17 79.02 1329.43 91.84Z" fill="#DE59FE" fill-opacity="1.000000" fill-rule="nonzero"/>
		<path id="path" d="M698.31 9.38C698.87 12.68 697.2 15.57 696.44 18.62C688.93 17.24 681.73 15.21 676.25 9.66C683.6 8.63 690.96 9.12 698.31 9.38Z" fill="#6B01D7" fill-opacity="1.000000" fill-rule="nonzero"/>
		<path id="path" d="M312.1 9.45C307.57 15.37 303.04 21.32 298.51 27.24C295.21 22.32 297.47 16.88 296.98 11.71C296.71 8.87 299.19 9.12 301.12 9.15C304.78 9.2 308.44 9.35 312.1 9.45Z" fill="#6B01D7" fill-opacity="1.000000" fill-rule="nonzero"/>
		<path id="path" d="M1079.84 33.71C1089.44 35.94 1099.15 37.83 1108.32 41.47C1101.31 41.6 1094.25 41.34 1087.28 41.96C1080.13 42.62 1078.18 39.89 1079.84 33.71Z" fill="#D138FE" fill-opacity="1.000000" fill-rule="nonzero"/>
		<path id="path" d="M484.92 15.32C484 13.26 481.46 12.04 481.55 9.47C488.31 9.04 495.07 8.73 501.81 9.63C496.97 13.72 490.91 14.44 484.92 15.32Z" fill="#6B01D7" fill-opacity="1.000000" fill-rule="nonzero"/>
		<path id="path" d="M1332.34 94.12C1330.83 94.12 1329.18 94.29 1329.53 92C1331.05 92 1331.87 92.86 1332.34 94.12Z" fill="#DE59FE" fill-opacity="1.000000" fill-rule="nonzero"/>
		<path id="path" d="M107.53 123.53C107.87 124.26 108.21 124.98 108.56 125.7C108.22 124.99 107.88 124.27 107.53 123.53Z" fill="#DE59FE" fill-opacity="1.000000" fill-rule="nonzero"/>
	</g>
</svg>
