<svg width="70.000000" height="51.760742" viewBox="0 0 70 51.7607" fill="none" xmlns="http://www.w3.org/2000/svg" xmlns:xlink="http://www.w3.org/1999/xlink">
	<desc>
			Created with Pixso.
	</desc>
	<defs/>
	<path id="Форма 39" d="M59.29 4.33C54.76 2.3 49.92 0.83 44.85 0C44.23 1.07 43.5 2.51 43 3.66C37.62 2.89 32.28 2.89 27 3.66C26.49 2.51 25.75 1.07 25.12 0C20.05 0.83 15.2 2.31 10.67 4.34C1.53 17.53 -0.95 30.4 0.29 43.08C6.35 47.4 12.23 50.03 18 51.75C19.43 49.88 20.7 47.88 21.8 45.78C19.71 45.02 17.71 44.09 15.82 43.01C16.33 42.65 16.82 42.28 17.29 41.9C28.81 47.04 41.32 47.04 52.7 41.9C53.18 42.28 53.67 42.65 54.17 43.01C52.27 44.1 50.27 45.03 48.18 45.79C49.28 47.88 50.54 49.88 51.97 51.76C57.76 50.04 63.64 47.41 69.7 43.08C71.15 28.38 67.21 15.63 59.29 4.33ZM23.37 35.28C19.91 35.28 17.07 32.2 17.07 28.44C17.07 24.69 19.85 21.6 23.37 21.6C26.88 21.6 29.72 24.68 29.66 28.44C29.66 32.2 26.88 35.28 23.37 35.28ZM46.62 35.28C43.17 35.28 40.33 32.2 40.33 28.44C40.33 24.69 43.1 21.6 46.62 21.6C50.14 21.6 52.98 24.68 52.92 28.44C52.92 32.2 50.14 35.28 46.62 35.28Z" fill="#5865F2" fill-opacity="1.000000" fill-rule="nonzero"/>
</svg>
