<svg width="56.000000" height="56.000000" viewBox="0 0 56 56" fill="none" xmlns="http://www.w3.org/2000/svg" xmlns:xlink="http://www.w3.org/1999/xlink">
	<desc>
			Created with Pixso.
	</desc>
	<defs/>
	<path id="Форма 36" d="M0 28C0 12.53 12.53 0 28 0C43.46 0 56 12.53 56 28C56 43.46 43.46 56 28 56C12.53 56 0 43.46 0 28Z" fill="#0078FF" fill-opacity="1.000000" fill-rule="evenodd"/>
	<path id="Форма 36" d="M41.97 16.41C42.22 14.8 40.69 13.53 39.25 14.16L10.72 26.68C9.7 27.14 9.77 28.69 10.84 29.03L16.72 30.9C17.84 31.26 19.06 31.08 20.04 30.4L33.3 21.24C33.71 20.96 34.14 21.53 33.8 21.88L24.25 31.72C23.33 32.68 23.51 34.3 24.62 35L35.31 41.7C36.51 42.45 38.05 41.7 38.28 40.25L41.97 16.41Z" fill="#FFFFFF" fill-opacity="1.000000" fill-rule="nonzero"/>
</svg>
