<svg width="34.453125" height="136.664062" viewBox="0 0 34.4531 136.664" fill="none" xmlns="http://www.w3.org/2000/svg" xmlns:xlink="http://www.w3.org/1999/xlink">
	<desc>
			Created with Pixso.
	</desc>
	<defs/>
	<path id="path" d="M17.39 0C24.28 0 34.12 1.14 34.45 8.85C34.45 11.32 34.12 14.92 33.63 17.71C31.66 30.67 25.75 62.5 22.31 87.93L12.63 87.93C9.84 64.47 3.93 32.32 1.47 18.37C0.82 15.91 0 11.32 0 8.85C0 1.8 10 0 17.39 0ZM17.55 136.66C8.03 136.66 1.14 129.77 1.14 119.6C1.14 109.75 8.03 102.86 17.55 102.86C27.23 102.86 34.12 109.75 34.12 119.6C34.12 129.77 27.23 136.66 17.55 136.66Z" fill="#FFFFFF" fill-opacity="1.000000" fill-rule="nonzero"/>
</svg>
