<svg width="83.000000" height="83.000061" viewBox="0 0 83 83.0001" fill="none" xmlns="http://www.w3.org/2000/svg" xmlns:xlink="http://www.w3.org/1999/xlink">
	<desc>
			Created with Pixso.
	</desc>
	<defs/>
	<path id="path" d="M70.86 12.17C54.66 -4.05 28.38 -4.06 12.17 12.13C-4.05 28.33 -4.06 54.61 12.13 70.82C28.33 87.04 54.61 87.05 70.82 70.86C87.04 54.66 87.05 28.38 70.86 12.17ZM47.29 67.83C47.29 68.47 46.77 68.99 46.13 68.99L36.86 68.99C36.22 68.99 35.7 68.47 35.7 67.83L35.7 33.41C35.7 32.77 36.22 32.25 36.86 32.25L46.13 32.25C46.77 32.25 47.29 32.77 47.29 33.41L47.29 67.83ZM41.5 27.44C37.79 27.44 34.77 24.43 34.77 20.72C34.77 17.02 37.79 14 41.5 14C45.2 14 48.22 17.02 48.22 20.72C48.22 24.43 45.2 27.44 41.5 27.44Z" fill="#AF5CFF" fill-opacity="1.000000" fill-rule="nonzero"/>
</svg>
