<?xml version="1.0" encoding="utf-8"?>
<!-- Generator: Adobe Illustrator 24.1.2, SVG Export Plug-In . SVG Version: 6.00 Build 0)  -->
<svg version="1.1" id="Слой_1" xmlns="http://www.w3.org/2000/svg" xmlns:xlink="http://www.w3.org/1999/xlink" x="0px" y="0px"
	 viewBox="0 0 256 256" style="enable-background:new 0 0 256 256;" xml:space="preserve">
<style type="text/css">
	.st0{fill:url(#SVGID_1_);}
	.st1{fill:#FFFFFF;}
</style>
<g>
	<linearGradient id="SVGID_1_" gradientUnits="userSpaceOnUse" x1="25.14" y1="96.8053" x2="228.0954" y2="159.0403">
		<stop  offset="7.048590e-02" style="stop-color:#7600FF"/>
		<stop  offset="0.6935" style="stop-color:#FF5C73"/>
	</linearGradient>
	<path class="st0" d="M156.4,53l-55.9,0c-9.7,0-18.6,5.2-23.5,13.6l-27.9,48.4c-4.8,8.4-4.8,18.7,0,27.1l27.9,48.4
		c4.8,8.4,13.8,13.6,23.5,13.6l55.9,0c9.7,0,18.6-5.2,23.5-13.6l27.9-48.4c4.8-8.4,4.8-18.7,0-27.1l-27.9-48.4
		C175.1,58.2,166.1,53,156.4,53z"/>
</g>
<g>
	<path class="st1" d="M128.7,88.1c4.2,0,10.2,0.7,10.4,5.4c0,1.5-0.2,3.7-0.5,5.4c-1.2,7.9-4.8,27.3-6.9,42.8h-5.9
		c-1.7-14.3-5.3-33.9-6.8-42.4c-0.4-1.5-0.9-4.3-0.9-5.8C118.1,89.2,124.2,88.1,128.7,88.1z M128.8,171.4c-5.8,0-10-4.2-10-10.4
		c0-6,4.2-10.2,10-10.2c5.9,0,10.1,4.2,10.1,10.2C138.9,167.2,134.7,171.4,128.8,171.4z"/>
</g>
</svg>
