<svg width="64.000000" height="64.000000" viewBox="0 0 64 64" fill="none" xmlns="http://www.w3.org/2000/svg" xmlns:xlink="http://www.w3.org/1999/xlink">
	<desc>
			Created with Pixso.
	</desc>
	<defs>
		<clipPath id="clip88_747">
			<rect id="blockuser" width="64.000000" height="64.000000" fill="white" fill-opacity="0"/>
		</clipPath>
	</defs>
	<g clip-path="url(#clip88_747)">
		<path id="path" d="M32.2 6.3C27.2 6.3 23.1 10.3 23.1 15.3C23.1 15.6 23.1 15.8 23.1 16.1L31.3 24.3C31.5 24.3 31.7 24.3 31.9 24.3C37 24.4 41.2 20.29 41.2 15.3C41.2 10.4 37.09 6.3 32.2 6.3Z" fill="#A5A5A5" fill-opacity="1.000000" fill-rule="nonzero"/>
		<path id="polyline" d="M55.23 54.73L55.26 54.73C56.25 55.72 56.25 57.27 55.26 58.26C54.27 59.25 52.72 59.25 51.73 58.26L51.73 58.23L55.23 54.73ZM6.26 12.76L6.23 12.76C5.24 11.77 5.24 10.22 6.23 9.23C7.22 8.24 8.77 8.24 9.76 9.23L9.76 9.26L6.26 12.76Z" fill="#000000" fill-opacity="0" fill-rule="nonzero"/>
		<path id="polyline" d="M53.5 56.5L50.3 53.3L26.7 29.7L8 11" stroke="#A5A5A5" stroke-opacity="1.000000" stroke-width="5.000000" stroke-linecap="round"/>
		<path id="path" d="M26.7 29.7L50.3 53.29C50 53.6 49.8 53.99 49.5 54.29C47.9 55.9 45.8 56.79 43.4 56.79L20.7 56.79C15.9 56.79 12 52.9 12 48.1C12 42.9 14.1 38.09 17.5 34.7C20 32.29 23.2 30.49 26.7 29.7Z" fill="#A5A5A5" fill-opacity="1.000000" fill-rule="nonzero"/>
		<path id="path" d="M51.7 44.7L36.5 29.5C44.2 30.9 50.3 37 51.7 44.7Z" fill="#A5A5A5" fill-opacity="1.000000" fill-rule="nonzero"/>
	</g>
</svg>
