<?xml version="1.0" encoding="utf-8"?>
<!-- Generator: Adobe Illustrator 24.1.2, SVG Export Plug-In . SVG Version: 6.00 Build 0)  -->
<svg version="1.1" id="like" xmlns="http://www.w3.org/2000/svg" xmlns:xlink="http://www.w3.org/1999/xlink" x="0px" y="0px"
	 viewBox="0 0 64 64" style="enable-background:new 0 0 64 64;" xml:space="preserve">
<style type="text/css">
	.st0{fill:#8C3CFF;}
</style>
<path class="st0" d="M28.9,41.8c-1.3,0.2-2.4,0.4-3.4,0.5c-3.1,0.4-6.2,0.7-9.2-0.1c-0.5-0.1-0.9-0.3-1.3-0.5
	c-2.6-1.2-3.3-3.5-1.8-5.9c0.4-0.6,0.4-1-0.1-1.5c-1.5-1.7-1.4-4.4,0.3-5.9c0.6-0.6,0.8-1.1,0.6-1.9c-0.5-2,0.3-3.5,1.9-4.6
	c0.6-0.4,0.9-0.8,0.7-1.6c-0.3-1.7,0.3-3,1.9-3.7c1-0.4,2-0.6,3-0.6c5.1,0,10.2,0,15.3,0.1c4,0.1,5.1,1.2,5.1,5.2
	c0,3.5-0.1,7.1,0,10.6c0.1,3-0.8,5.7-2.3,8.3c-0.4,0.7-0.8,1.4-1.2,2c-2.2,3.2-3.4,6.7-3.3,10.6c0,0.8-0.1,1.7-0.3,2.4
	c-0.4,1.4-1.4,2-2.9,1.9c-1.8-0.2-3.1-1.2-3.9-2.8c-1.2-2.4-1.2-4.9-0.6-7.4C27.8,45.3,28.4,43.6,28.9,41.8z M44,35.3
	c0,1.5,1,2.5,2.5,2.6c1.7,0,3.4,0,5.1,0c1.5,0,2.5-1.1,2.5-2.6c0-5.5,0-10.9,0-16.4c0-1.6-1-2.6-2.6-2.7c-1.6,0-3.3,0-4.9,0
	c-1.7,0-2.6,1.1-2.6,2.7c0,2.7,0,5.4,0,8.1C44,29.7,44,32.5,44,35.3z"/>
</svg>
