<?xml version="1.0" encoding="utf-8"?>
<!-- Generator: Adobe Illustrator 24.1.2, SVG Export Plug-In . SVG Version: 6.00 Build 0)  -->
<svg version="1.1" xmlns="http://www.w3.org/2000/svg" xmlns:xlink="http://www.w3.org/1999/xlink" x="0px" y="0px"
	 viewBox="0 0 128 122.8" style="enable-background:new 0 0 128 122.8;" xml:space="preserve">
<style type="text/css">
	.st0{fill:#8C3CFF;}
</style>
<g id="Слой_4">
	<path class="st0" d="M69.1,55.8c1.2-0.2,2.3-0.4,3.3-0.5c3-0.4,6-0.7,8.9,0.1c0.4,0.1,0.9,0.3,1.3,0.5c2.6,1.2,3.2,3.3,1.7,5.7
		c-0.3,0.5-0.4,0.9,0.1,1.4c1.4,1.6,1.3,4.2-0.3,5.7c-0.6,0.5-0.8,1-0.6,1.8c0.5,1.9-0.3,3.3-1.9,4.4c-0.6,0.4-0.8,0.8-0.7,1.5
		c0.3,1.6-0.3,2.9-1.9,3.5c-0.9,0.4-2,0.6-2.9,0.6c-4.9,0-9.9,0-14.8-0.1c-3.9-0.1-4.9-1.2-4.9-5c0-3.4,0.1-6.8,0-10.2
		c-0.1-2.9,0.7-5.5,2.2-7.9c0.4-0.6,0.8-1.3,1.2-1.9c2.1-3.1,3.3-6.4,3.2-10.2c0-0.8,0.1-1.6,0.3-2.3c0.4-1.4,1.4-2,2.8-1.8
		c1.8,0.2,3,1.2,3.8,2.7c1.2,2.3,1.2,4.7,0.6,7.1C70.2,52.4,69.7,54,69.1,55.8z"/>
</g>
<g id="Слой_3">
	<path class="st0" d="M54.5,62c0-1.4-1-2.4-2.4-2.5c-1.7,0-3.3,0-5,0c-1.5,0-2.5,1-2.5,2.5c0,5.3,0,10.5,0,15.8
		c0,1.6,0.9,2.5,2.5,2.6c1.6,0,3.2,0,4.8,0c1.6,0,2.5-1,2.5-2.6c0-2.6,0-5.2,0-7.8C54.5,67.4,54.5,64.7,54.5,62z"/>
</g>
</svg>
