<svg width="71.000000" height="71.000000" viewBox="0 0 71 71" fill="none" xmlns="http://www.w3.org/2000/svg" xmlns:xlink="http://www.w3.org/1999/xlink">
	<desc>
			Created with Pixso.
	</desc>
	<defs/>
	<path id="Форма 1" d="M35.5 0C55.1 0 71 15.89 71 35.5C71 55.1 55.1 71 35.5 71C15.89 71 0 55.1 0 35.5C0 15.89 15.89 0 35.5 0Z" fill="#FF4949" fill-opacity="1.000000" fill-rule="evenodd"/>
	<path id="Форма 1" d="M43.48 48.99L40.43 41.14L30.38 41.14L27.37 48.99L24.14 48.99L34.04 23.53L36.92 23.53L46.78 48.99L43.48 48.99ZM36.63 30.63C36.56 30.44 36.45 30.1 36.28 29.61C36.11 29.11 35.95 28.59 35.79 28.06C35.64 27.53 35.52 27.12 35.43 26.83C35.26 27.57 35.07 28.28 34.86 28.98C34.64 29.68 34.47 30.23 34.33 30.63L31.45 38.3L39.47 38.3L36.63 30.63Z" fill="#FFFFFF" fill-opacity="1.000000" fill-rule="nonzero"/>
</svg>
