<svg width="130.000000" height="32.562134" viewBox="0 0 130 32.5621" fill="none" xmlns="http://www.w3.org/2000/svg" xmlns:xlink="http://www.w3.org/1999/xlink">
	<desc>
			Created with Pixso.
	</desc>
	<defs/>
	<path id="Форма 40" d="M0 16.2C0 7.25 7.27 0 16.25 0C25.22 0 32.5 7.25 32.5 16.2C32.5 25.14 25.22 32.4 16.25 32.4C7.27 32.4 0 25.14 0 16.2ZM113.75 0C104.77 0 97.5 7.25 97.5 16.2C97.5 25.14 104.77 32.4 113.75 32.4C122.72 32.4 130 25.14 130 16.2C130 7.25 122.72 0 113.75 0ZM48.99 16.36C48.99 7.41 56.26 0.16 65.24 0.16C74.21 0.16 81.49 7.41 81.49 16.36C81.49 25.3 74.21 32.56 65.24 32.56C56.26 32.56 48.99 25.3 48.99 16.36Z" fill="#9200FF" fill-opacity="1.000000" fill-rule="evenodd"/>
</svg>
