<svg width="64.000244" height="64.000000" viewBox="0 0 64.0002 64" fill="none" xmlns="http://www.w3.org/2000/svg" xmlns:xlink="http://www.w3.org/1999/xlink">
	<desc>
			Created with Pixso.
	</desc>
	<defs/>
	<path id="path" d="M19.44 27.98L19.44 19.7L46.58 19.7C49.46 19.7 51.95 21.52 53.2 24.19C54.12 22.7 54.69 20.88 54.69 18.94C54.69 13.91 51.03 9.82 46.53 9.82L19.44 9.82L19.44 1.51C19.44 0.3 18.19 -0.43 17.32 0.27L0.56 13.52C-0.19 14.12 -0.19 15.37 0.56 15.97L17.32 29.19C18.22 29.89 19.44 29.19 19.44 27.98Z" fill="#8551E9" fill-opacity="1.000000" fill-rule="nonzero"/>
	<path id="path" d="M63.43 47.99L46.67 34.77C45.77 34.07 44.55 34.77 44.55 36.01L44.55 44.29L17.41 44.29C14.53 44.29 12.04 42.47 10.79 39.8C9.84 41.29 9.3 43.11 9.3 45.05C9.3 50.08 12.96 54.17 17.46 54.17L44.55 54.17L44.55 62.48C44.55 63.69 45.8 64.42 46.67 63.72L63.43 50.5C64.18 49.84 64.18 48.59 63.43 47.99Z" fill="#8551E9" fill-opacity="1.000000" fill-rule="nonzero"/>
</svg>
