<?xml version="1.0" encoding="utf-8"?>
<!-- Generator: Adobe Illustrator 24.1.2, SVG Export Plug-In . SVG Version: 6.00 Build 0)  -->
<svg version="1.1" id="addpost" xmlns="http://www.w3.org/2000/svg" xmlns:xlink="http://www.w3.org/1999/xlink" x="0px" y="0px"
	 viewBox="0 0 128 128" style="enable-background:new 0 0 128 128;" xml:space="preserve">
<style type="text/css">
	.st0{fill:url(#SVGID_1_);}
	.st1{fill:#7C00FF;}
	.st2{fill:#D90AFF;}
	.st3{fill:url(#SVGID_2_);}
	.st4{fill:#FF7BAC;}
	.st5{fill:#FF8ABB;}
	.st6{fill:#FF749F;}
	.st7{fill:url(#SVGID_3_);}
</style>
<g>
	<linearGradient id="SVGID_1_" gradientUnits="userSpaceOnUse" x1="41.25" y1="87.25" x2="86.75" y2="41.75">
		<stop  offset="1.065558e-07" style="stop-color:#CC5CF4"/>
		<stop  offset="0.1186" style="stop-color:#C35BF1"/>
		<stop  offset="0.3158" style="stop-color:#A958EA"/>
		<stop  offset="0.5658" style="stop-color:#8052DE"/>
		<stop  offset="0.7052" style="stop-color:#664FD7"/>
	</linearGradient>
	<polygon class="st0" points="102.5,57.5 102.5,71.5 71,71.5 71,103 57,103 57,71.5 25.5,71.5 25.5,57.5 57,57.5 57,26 71,26 
		71,57.5 	"/>
</g>
<g>
	<polygon class="st1" points="79.47,45.19 80.44,46.17 78.25,48.36 80.44,50.56 79.47,51.53 77.27,49.34 75.08,51.53 74.1,50.56 
		76.3,48.36 74.1,46.17 75.08,45.19 77.27,47.39 	"/>
</g>
<g>
	<polygon class="st2" points="33,78.87 33,79.86 30.77,79.86 30.77,82.09 29.78,82.09 29.78,79.86 27.54,79.86 27.54,78.87 
		29.78,78.87 29.78,76.63 30.77,76.63 30.77,78.87 	"/>
</g>
<linearGradient id="SVGID_2_" gradientUnits="userSpaceOnUse" x1="40.0975" y1="23.5862" x2="51.5949" y2="12.0888" gradientTransform="matrix(0.9681 -0.2507 0.2507 0.9681 -9.8793 36.6201)">
	<stop  offset="1.065558e-07" style="stop-color:#CC5CF4"/>
	<stop  offset="0.1186" style="stop-color:#C35BF1"/>
	<stop  offset="0.3158" style="stop-color:#A958EA"/>
	<stop  offset="0.5658" style="stop-color:#8052DE"/>
	<stop  offset="0.7052" style="stop-color:#664FD7"/>
</linearGradient>
<path class="st3" d="M37.96,35.13c-4.35,1.13-6.96,5.56-5.83,9.91c0.73,2.83,2.86,4.92,5.46,5.72c1.39,0.44,2.93,0.5,4.45,0.11
	l-0.41-1.57c-3.48,0.9-7.03-1.19-7.93-4.67c-0.9-3.48,1.19-7.03,4.67-7.93c3.48-0.9,7.03,1.19,7.93,4.67l1.57-0.41
	C46.75,36.62,42.31,34,37.96,35.13z"/>
<path class="st4" d="M95.16,33.33c-4-2.52-9.75-1.13-12.13,2.95c-1.07,1.84-1.34,3.79-0.58,5.81c0.58,1.54,1.63,2.69,3.07,3.49
	c0.62,0.34,1.02,0.82,1.18,1.51c0.09,0.41,0.22,0.8,0.35,1.28c0.35-0.35,0.65-0.64,0.93-0.94c0.5-0.54,1.09-0.77,1.83-0.79
	c3.09-0.12,5.6-1.36,7.34-3.97C99.27,39.5,98.38,35.37,95.16,33.33z M86.9,42c-0.89,0.25-1.82-0.27-2.07-1.15
	c-0.26-0.92,0.27-1.85,1.18-2.09c0.89-0.24,1.81,0.29,2.06,1.18C88.31,40.83,87.79,41.75,86.9,42z M90.62,40.98
	c-0.89,0.26-1.85-0.27-2.09-1.18c-0.24-0.89,0.28-1.81,1.18-2.06c0.88-0.25,1.81,0.27,2.06,1.16C92.02,39.8,91.52,40.72,90.62,40.98
	z M94.31,39.97c-0.89,0.24-1.81-0.28-2.07-1.17c-0.25-0.87,0.3-1.84,1.16-2.07c0.92-0.24,1.85,0.28,2.09,1.19
	C95.73,38.82,95.21,39.73,94.31,39.97z"/>
<path class="st5" d="M90.7,94.62c-1.67-1.03-3.55-1.32-5.37-1.77c-0.97-0.24-1.96-0.47-2.8-1.03c-1.32-0.87-1.99-2.12-1.89-3.7
	c0.11-1.78,1.85-3.13,3.79-2.97c0.48,0.04,0.96,0.2,1.41,0.36c0.53,0.19,0.74,0.12,0.88-0.42c0.3-1.13,0.96-1.99,2-2.53
	c1.63-0.85,3.47-0.31,4.4,1.28c0.63,1.09,0.85,2.25,0.42,3.45c-0.36,0.99-0.79,1.95-1.23,2.91c-0.55,1.17-1.15,2.32-1.45,3.59
	C90.8,94.05,90.76,94.31,90.7,94.62z"/>
<path class="st6" d="M46.39,85.01c0.4,0.24,0.74,0.44,1.08,0.65c0.94,0.61,1.88,1.23,2.54,2.17c0.1,0.14,0.19,0.29,0.26,0.44
	c0.45,0.95,0.12,1.73-0.89,2.05c-0.23,0.07-0.34,0.17-0.33,0.43c0.02,0.82-0.64,1.52-1.46,1.56c-0.3,0.01-0.47,0.11-0.61,0.39
	c-0.32,0.65-0.89,0.89-1.59,0.82c-0.26-0.03-0.43,0.02-0.57,0.27c-0.3,0.55-0.79,0.77-1.38,0.57c-0.35-0.12-0.7-0.3-0.98-0.54
	c-1.42-1.17-2.83-2.36-4.22-3.57c-1.1-0.97-1.12-1.51-0.19-2.63c0.82-0.98,1.67-1.94,2.47-2.95c0.68-0.86,1.54-1.41,2.57-1.75
	c0.27-0.09,0.54-0.2,0.81-0.27c1.35-0.37,2.49-1.07,3.38-2.17c0.18-0.23,0.4-0.44,0.65-0.61c0.45-0.3,0.86-0.24,1.23,0.15
	c0.46,0.48,0.57,1.06,0.43,1.69c-0.21,0.95-0.8,1.63-1.56,2.19C47.52,84.28,46.98,84.62,46.39,85.01z M40.7,83.3
	c0.34-0.42,0.31-0.93-0.09-1.29c-0.46-0.41-0.94-0.81-1.42-1.19c-0.43-0.35-0.95-0.29-1.31,0.14c-1.28,1.51-2.55,3.03-3.82,4.55
	c-0.38,0.45-0.34,0.96,0.09,1.34c0.45,0.39,0.9,0.78,1.37,1.15c0.47,0.37,0.97,0.31,1.36-0.15c0.63-0.74,1.25-1.49,1.88-2.23
	C39.4,84.85,40.06,84.08,40.7,83.3z"/>
<g>
	<polygon class="st2" points="43.79,96.19 45.12,97.52 42.13,100.51 45.12,103.5 43.79,104.83 40.8,101.84 37.81,104.83 
		36.48,103.5 39.47,100.51 36.48,97.52 37.81,96.19 40.8,99.18 	"/>
</g>
<linearGradient id="SVGID_3_" gradientUnits="userSpaceOnUse" x1="82.6789" y1="100.3036" x2="100.535" y2="82.4474" gradientTransform="matrix(-0.835 0.5502 -0.5502 -0.835 216.5146 114.5774)">
	<stop  offset="1.065558e-07" style="stop-color:#CC5CF4"/>
	<stop  offset="0.1186" style="stop-color:#C35BF1"/>
	<stop  offset="0.3158" style="stop-color:#A958EA"/>
	<stop  offset="0.5658" style="stop-color:#8052DE"/>
	<stop  offset="0.7052" style="stop-color:#664FD7"/>
</linearGradient>
<path class="st7" d="M94.88,98.85c5.82-3.84,7.43-11.67,3.6-17.49c-2.49-3.79-6.68-5.79-10.9-5.67c-2.26,0.05-4.55,0.73-6.59,2.07
	l1.39,2.11c4.66-3.07,10.92-1.78,13.99,2.88c3.07,4.66,1.78,10.92-2.88,13.99c-4.66,3.07-10.92,1.78-13.99-2.88l-2.11,1.39
	C81.23,101.07,89.06,102.68,94.88,98.85z"/>
<g>
	<polygon class="st2" points="42.59,39.74 43.57,40.72 41.36,42.94 43.57,45.15 42.59,46.13 40.37,43.92 38.16,46.13 37.18,45.15 
		39.39,42.94 37.18,40.72 38.16,39.74 40.37,41.95 	"/>
</g>
</svg>
