<?xml version="1.0" encoding="utf-8"?>
<!-- Generator: Adobe Illustrator 24.1.2, SVG Export Plug-In . SVG Version: 6.00 Build 0)  -->
<svg version="1.1" id="main" xmlns="http://www.w3.org/2000/svg" xmlns:xlink="http://www.w3.org/1999/xlink" x="0px" y="0px"
	 viewBox="0 0 512 512" style="enable-background:new 0 0 512 512;" xml:space="preserve">
<style type="text/css">
	.st0{fill:#E2E8FF;}
</style>
<path class="st0" d="M0,432.2c1.4-0.1,3-0.5,4.3-0.2c18.8,4.6,37.5,9.3,56.2,13.8c3.1,0.7,4,2.2,3.8,5.2c-0.9,12.9-1,25.9-2.6,38.7
	c-1,7.4-4.3,14.5-6.6,21.8c-1.4,0-2.8,0-4.2,0c1.1-2.8,2.1-5.5,3.3-8.5c-8.5-2.2-16.6-4.3-24.8-6.3c-9.8-2.4-19.6-4.6-29.4-6.9
	c0-1.4,0-2.8,0-4.2c18.5,4.5,37.1,9,55.8,13.6c0.7-2.7,1.2-5,1.8-7.2c-0.6-0.3-0.9-0.6-1.3-0.7c-17.6-4.4-35.3-8.9-53-13.2
	c-0.9-0.2-2.2,1.1-3.3,1.7C0,464,0,448.1,0,432.2z M3.9,435.8c-0.8,13-1.5,25.3-2.2,37.8c19,4.7,37.6,9.4,56.6,14.1
	c0.7-13,1.4-25.3,2.1-37.8C41.6,445.2,23.1,440.6,3.9,435.8z"/>
<path class="st0" d="M0,335.2c1,2.2,2.1,4.5,3.3,7.1c1.8-1,3.5-1.9,5.1-2.8c13.8-8.3,27.6-16.7,41.5-24.9c2.5-1.5,3.2-2.7,2.1-5.6
	c-4.1-10.5-7.9-21-12-31.9c-13.6,8.1-26.8,16-40,23.9c0-1.7,0-3.3,0-5c12.5-7.4,25-14.8,37.5-22.2c0.2-0.1,0.2-0.5,0.4-1.1
	c-1.2-1.9-2.5-3.9-3.8-6c-1.9,1.1-3.5,2-5.1,3c-9.7,5.7-19.3,11.4-29,17.1c0-1.4,0-2.8,0-4.2c10.5-6.3,21-12.6,31.9-19.1
	c-6.9-7.8-13.4-15-19.8-22.3c-5.3-5.9-5.3-5.9-12-2.1c0-1.7,0-3.3,0-5c0.3,0,0.6,0.1,0.8,0c7.1-3.3,7.1-3.3,12.2,2.4
	c7.2,8.1,14.7,16,21.5,24.4c3.5,4.4,6.6,9.3,8.8,14.5c4.8,11.5,8.7,23.4,13.2,35.1c1.1,2.8,0.5,4.2-2,5.7
	C38.1,326,21.7,336,5.2,345.7c-1.3,0.8-3.4,0.3-5.2,0.4C0,342.5,0,338.9,0,335.2z"/>
<path class="st0" d="M121.1,0c5.4,14.2,10.8,28.3,16.2,42.5c1.1,3,3.1,4,6.2,2.7c11.8-4.6,23.6-9.1,35.4-13.6
	c3.4-1.3,3.8-3.5,2.6-6.6c-3.2-8.3-6.3-16.6-9.5-25c1.4,0,2.8,0,4.2,0c3,7.9,6,15.8,8.9,23.8c2.2,5.8,0.6,9.3-5.1,11.5
	c-11.4,4.4-22.8,8.8-34.2,13.2c-6.8,2.6-10,1.1-12.6-5.7c-5.5-14.3-10.9-28.5-16.4-42.8C118.3,0,119.7,0,121.1,0z"/>
<path class="st0" d="M491.1,511.6c-0.5-14.4,3.6-24.5,13.3-32.1c-3.8-6.5-4.3-13.6-2-20.7c2.2-6.8,5-13.4,7.5-20.1
	c0.4,0.1,0.8,0.2,1.2,0.3c0,3.1,0,6.2,0,9.3c-0.1,11.9-0.9,23.9-0.1,35.8c0.3,4-2.2,5.2-3.3,7.7c-2.9,6.6-6,13.2-9,19.7
	C496.1,511.6,493.6,511.6,491.1,511.6z M508.7,477.7c0.6-10.1,1.2-19.2,1.8-29.1C504.2,458.6,503.3,471,508.7,477.7z M506.8,484.6
	c-0.5-0.2-1-0.5-1.5-0.7c-8.9,6.2-9.2,16.1-9.9,25.8C499.1,501.3,503,492.9,506.8,484.6z"/>
<path class="st0" d="M169.6,0c2.1,5.8,4.3,11.7,6.4,17.5c1.7,4.6,1.4,5.6-3.1,7.3c-10.1,3.9-20.2,7.7-30.3,11.6
	c-3,1.2-5,0.7-6.2-2.5c-4.2-11.3-8.5-22.6-12.8-33.9c1.4,0,2.8,0,4.2,0c4.1,10.9,8.1,21.8,12.4,33.2c11.1-4.3,21.8-8.4,32.6-12.5
	c-2.6-7.1-5-13.9-7.4-20.7C166.8,0,168.2,0,169.6,0z"/>
<path class="st0" d="M116.9,511.6c-2.9-7.3-1.4-10.6,5.7-13.2c11.2-4.2,22.3-8.5,33.5-12.8c6.4-2.4,9.7-1,12,5.3
	c2.5,6.9,4.9,13.8,7.3,20.7c-1.1,0-2.2,0-3.3,0c-2.5-6.5-5.2-12.9-7.5-19.4c-1.4-3.7-3.4-4.6-7.1-3.1c-10.7,4.3-21.5,8.3-32.3,12.5
	c-6.7,2.6-7,3.3-4.1,10.1C119.7,511.6,118.3,511.6,116.9,511.6z"/>
<path class="st0" d="M0,16.7c9,2.1,18.1,4.1,27.1,6.2c3.8,0.9,7.5,1.9,11.8,2.9C42.7,17.2,46.4,8.6,50.1,0c1.4,0,2.8,0,4.2,0
	C50.1,9.5,46,19,41.6,28.4c-0.4,0.8-2.6,1.4-3.7,1.2c-12.6-3-25.3-6.3-37.9-9.5C0,18.9,0,17.8,0,16.7z"/>
<path class="st0" d="M164.5,511.6c-1.6-4.7-3.1-9.4-4.9-14.6c-4.7,1.8-8.9,3.4-13.1,5c-5.6,2.1-11.2,4.1-16.6,6.4
	c-1.2,0.5-2,2.1-3,3.2c-1.1,0-2.2,0-3.3,0c-1.7-2.9-0.5-4.7,2.3-5.8c10.5-4,21-8.1,31.5-12.1c2.2-0.8,4.3-1,5.3,1.5
	c2.1,5.4,4,10.9,6,16.4C167.3,511.6,165.9,511.6,164.5,511.6z"/>
<path class="st0" d="M498.6,0c-1.7,3.8-3.4,7.5-5.3,11.7c6.1,1.6,11.8,3.1,17.6,4.6c0,1.3,0,2.5,0,3.9c-6.7-1.7-13.2-3.3-19.6-4.9
	c-2.2-0.5-2.7-1.5-2.2-3.9c0.8-3.7,0.8-7.6,1.2-11.3C493.1,0,495.9,0,498.6,0z"/>
<path class="st0" d="M0,243.3c4-2.7,6.6-1.1,9.1,2.5c2.8,3.9,6.4,7.4,9.3,11.2c0.8,1.1,0.7,2.8,1,4.3c-1.4-0.5-3.1-0.6-4-1.5
	c-3.9-4.2-7.5-8.6-11.3-13.1c-1.4,0.6-2.8,1.1-4.1,1.6C0,246.6,0,244.9,0,243.3z"/>
<path class="st0" d="M137.8,511.6c5.6-2.3,11.2-4.7,16.8-6.8c0.8-0.3,2,0.6,3,0.9c-0.5,0.8-0.9,2-1.7,2.5c-2.4,1.3-4.9,2.3-7.4,3.5
	C145.1,511.6,141.4,511.6,137.8,511.6z"/>
<path class="st0" d="M146.2,0c-2.7,1.2-5.4,2.5-8.2,3.5c-1,0.4-2.2,0.1-3.4,0.1c0.2-1.2,0.5-2.4,0.7-3.6C138.9,0,142.5,0,146.2,0z"
	/>
<path class="st0" d="M205.3,340.5c1.5,0.3,2.4,0.5,3.4,0.6c2.5,0.2,3.1,1.5,2.2,3.7c-6.3,14.2-12.6,28.5-19,42.7
	c-0.3,0.6-0.8,1.6-1.2,1.6c-4.4-0.2-5.3,3.4-7.2,6.2c-0.8,1.2-3.5,1.8-5.1,1.5c-2.7-0.4-4.4,0.3-5.4,2.6c-1.6,3.6-4.1,3.9-7.4,2.7
	c-15.9-5.7-26.2-16.8-31.8-32.5c-0.5-1.4-0.1-3.3,0.5-4.7c5.9-13.3,11.9-26.6,18-39.9c1.3-2.9,9.6-7.8,12.7-7.3c1,0.1,2,1,2.7,1.7
	c9.5,9.3,21.1,13,34.2,12.7c6.9-0.1,6.9-0.2,4.4,6C205.9,338.8,205.7,339.4,205.3,340.5z M202.8,336.1c-14.4,0.2-26.6-3.9-37.3-13.1
	c-5.8,13.2-11.3,26-17.2,38.6c-1.4,3-0.6,4.5,1.6,6.2c9.6,7.6,20.8,9.6,32.6,9c1.1-0.1,2.6-1.2,3.1-2.2
	C191.4,362.1,196.9,349.5,202.8,336.1z M154.3,375.8c7.8,5.9,16.6,8.8,26.2,9.6c7.8,0.7,7.9,0.5,11.1-6.8c1.9-4.3,3.8-8.6,5.7-13
	c3-6.8,6.1-13.6,9.1-20.5c-3.1-1.9-3.7,0.4-4.4,2.1c-4.3,9.8-8.7,19.5-12.9,29.4c-1.1,2.5-2.4,3.6-5.2,3.9
	C173.7,381.4,163.8,379.8,154.3,375.8z M139.3,363c0.5,0.4,1,0.8,1.5,1.2c1.5-1.7,3.5-3.2,4.5-5.2c4.9-10.7,9.6-21.6,14.3-32.4
	c0.4-0.9,0.6-1.9,1-2.9c-0.4-0.3-0.7-0.5-1.1-0.8c-1.3,1.4-2.9,2.6-3.8,4.2c-1.7,3.2-3.1,6.5-4.6,9.8
	C147.2,345.6,143.2,354.3,139.3,363z M138.2,369.1c4.9,14.1,14,24.2,28.4,29c1.1,0.4,2.7-0.8,4.1-1.2c-0.1-0.4-0.1-0.8-0.2-1.2
	C155.6,391.8,145.4,382.3,138.2,369.1z M151.5,379.8c6.9,7.9,15.7,12,26,13.2c2.4,0.3,4.1-0.3,4.4-3.4
	C171.1,388.4,160.8,385.7,151.5,379.8z"/>
<path class="st0" d="M307.4,43c0.8-1.2,1.3-2,1.7-2.9c1.1-2.2,2.5-2.4,4.3-0.7c11.2,10.8,22.4,21.6,33.6,32.5
	c0.5,0.5,1.3,1.7,1.1,2.1c-1.8,3.5,0.7,5.5,2.7,7.5c2,2,1.5,4.1,0.3,6.1c-1.5,2.4-1.4,4.4,0.7,6.3c2.7,2.5,2.1,5-0.1,7.6
	c-10.8,13.2-24.9,19.2-41.7,19c-1.3,0-2.9-0.9-3.9-1.9c-10.6-10.2-21.1-20.6-31.7-30.9c-2.1-2.1-3.7-12.2-2.2-14.6
	c0.4-0.6,1.2-1.1,2-1.4c12.4-5.7,19.9-15.7,24.3-28.3c2.2-6.2,2.1-6.2,7-1.8C305.9,42,306.5,42.3,307.4,43z M277.5,74.8
	c10.5,10.1,20.7,19.9,30.8,29.8c1.6,1.6,2.9,1.5,4.7,0.5c9.4-5.2,15-13.4,18.9-23.1c2.8-6.9,2.8-6.9-2.5-12c-1.5-1.4-3-2.9-4.5-4.4
	c-7.4-7.1-14.7-14.2-22.2-21.4C293.6,63.1,291.3,64.9,277.5,74.8z M312.2,43.6c-2.9,2.1-1,3.5,0.4,4.8c6,5.8,12,11.6,18,17.4
	c9.1,8.8,9.3,8.9,3.6,20.4c-2.9,5.8-6.7,11.1-10.3,16.9c9.5-7,15.6-16.2,19.5-27c0.3-0.8-0.1-2.3-0.7-2.9
	C332.6,63.3,322.4,53.5,312.2,43.6z M305.8,112.8c0.6-0.3,1.1-0.6,1.7-0.9c-1.2-2.1-2-4.6-3.6-6.2c-8.1-8.1-16.4-15.9-24.6-23.8
	c-1-0.9-2-1.8-3-2.7c-0.4,2-0.5,3.9,0.5,4.9C286.3,93.8,296.1,103.3,305.8,112.8z M348.5,95.2c-0.5,0-1-0.1-1.5-0.1
	c-8.6,12.5-21,18.5-35.5,20.7c11.7,2.1,31-6.6,37-16.7C349,98.1,348.5,96.5,348.5,95.2z M345.7,82.2c-3.3,5-6,10-9.6,14.3
	c-3.5,4.2-7.8,7.8-11.9,11.9c10.4-4.3,17.9-11.3,22.8-21.2C348.2,85,348.2,83.3,345.7,82.2z"/>
<path class="st0" d="M222.3,171.8c2.8,8,2.8,7.9-5.5,8.1c-12.4,0.4-23.6,4-32.4,13c-1.7,1.7-3,1.6-5.1,1.1
	c-6.3-1.6-9.9-5.2-12.4-11.4c-4.6-11.6-10.4-22.8-15.3-34.3c-1-2.3-1.1-5.5-0.2-7.8c5.7-14.4,15.6-24.8,30.5-30.1
	c3.6-1.3,6.3-1.2,8.3,2.7c0.7,1.3,3,2.3,4.5,2.3c3.5-0.2,6,0.6,7.1,4.1c0.7,2.1,1.9,3.4,4.5,3.5c1,0,2.4,1.7,2.9,3
	c5.8,12.7,11.4,25.4,17,38.1C229.1,170.3,229.1,170.3,222.3,171.8z M219.7,176.1c-4.7-10.8-9.1-20.8-13.6-30.8
	c-4.8-10.8-4.8-11-16.8-9.7c-9.7,1-18.5,4.3-25.4,11.8c6.2,14,12.3,27.8,18.5,41.9C193.2,179.8,205.3,176,219.7,176.1z M222.1,168
	c0.4-0.4,0.8-0.9,1.2-1.3c-4.6-10.4-9.2-20.8-13.8-31.2c-4.4-9.7-4.4-9.9-15.1-8.4c-8.2,1.1-15.9,3.6-22.6,8.9
	c8.9-3.5,18.1-5.1,27.7-4.6c3.5,0.2,5.6,1.5,7.1,5c4,9.8,8.4,19.4,12.8,29C219.7,166.4,221.1,167.1,222.1,168z M177.6,189.3
	c-0.2-1.3-0.1-1.7-0.3-2c-5.2-11.8-10.3-23.6-15.7-35.3c-0.7-1.6-2.9-2.5-4.4-3.8c-0.3,0.3-0.7,0.7-1,1
	c5.7,12.4,11.3,24.9,17.1,37.3C173.8,187.7,175.7,188.2,177.6,189.3z M155,143.2c7.2-13.2,17.4-22.8,32.1-26.7
	c-0.6-3.1-2.2-3.3-4.4-2.5c-6.9,2.5-12.9,6.4-17.9,11.8C160.3,130.8,156.8,136.5,155,143.2z M198.5,122.2c0-2.5-1.3-3.3-4-3
	c-9.1,1-17.2,4.3-24.1,10.4c-0.7,0.6-1.2,1.5-2,2.5c5.2-2.3,9.8-4.7,14.6-6.3C188,124.2,193.3,123.4,198.5,122.2z"/>
<path class="st0" d="M344.2,289.6c-6.4-12.5-2.1-22.8,5.8-32.5c1.6-1.9,2.8-4.3,3.6-6.7c0.8-2.5,1.8-3.6,4.6-3.7
	c8.8-0.3,17.5-0.8,26.2-1.4c3.2-0.2,4.3,0.7,3.5,4.1c-2.4,10.4-4.5,20.9-6.8,31.4c-0.5,2.3-0.8,4.2,1.6,5.9c0.8,0.5,1.2,2.4,1,3.6
	c-0.7,4.1-1.8,8.2-2.5,12.3c-0.5,2.9-1,5.3-4.6,6c-1,0.2-1.9,2.5-2.2,3.9c-2.3,10.2-4.3,20.4-6.5,30.6c-1,4.6-1.5,4.9-5.8,2.8
	c-7.6-3.7-15.2-7.6-22.8-11.2c-2.5-1.2-2.9-2.7-2.5-5.3c0.4-2.4,0.1-4.9-0.3-7.3c-0.4-3.2-1.4-6.2-1.8-9.4
	C333.8,303.5,336.2,295.5,344.2,289.6z M362.8,334.2c-4.4-14.2-4.6-26.9,5.9-37.9c-5.8-1.3-11-2.2-16.1-3.6c-4.6-1.2-7.8,0.4-10.4,4
	c-5,6.7-5.2,21.1-0.3,27.8c0.3,0.4,0.7,1,1.1,1.2C349.3,328.4,355.6,331.1,362.8,334.2z M369.7,292.5c-5.3-14.7,0.3-25.9,9.5-36.8
	c-5.1,0-9.6,0.5-13.9-0.1c-7.7-1.1-12.4,2.6-15.8,8.7c-1.6,2.9-3.5,5.9-3.9,9.1c-0.5,3.8,0.3,7.9,0.9,11.8c0.2,1.2,1.8,2.7,3,3
	C356,289.7,362.5,291,369.7,292.5z M381.6,260.5c-0.4-0.2-0.8-0.4-1.3-0.6c-2.2,3.8-4.8,7.4-6.6,11.3c-2.6,5.7-3.3,11.8-1,17.9
	c1,2.5,4,5,3.6,7c-0.4,2-4.3,3-6.2,4.8c-6.6,6.2-8.4,20.6-3.6,30.2c1.7-7.7,3.1-15,5-22.3c0.4-1.5,1.9-3.1,3.4-3.9
	c2.5-1.4,6-14.2,4.1-16.4c-0.1-0.1-0.2-0.2-0.3-0.3c-2.5-1.3-2.3-3.5-1.8-5.8C378.5,275.1,380,267.8,381.6,260.5z M364.7,342.8
	c-0.5-2.1-0.5-3.8-1.1-4c-7.4-3.2-14.8-6.5-22.4-9.3c-0.2,0.5-0.4,0.9-0.5,1.4C348.2,334.6,355.8,338.4,364.7,342.8z M383.3,249.2
	c-8.4,0.5-16.8,1-25.2,1.4C367.1,252.6,381.6,251.9,383.3,249.2z"/>
<path class="st0" d="M406.9,499.5c-3.4-1.5-5.9-1.3-8,1.6c-0.4,0.5-2.6,0.1-3.8-0.4c-10.1-4.1-16.5-11.8-20.7-21.7
	c-0.7-1.7-2.2-3.5-3.8-4.3c-9-4.9-15.8-11.7-19.2-21.6c-0.9-2.6-1.6-5,1.5-6.9c0.8-0.5,1.1-2.4,1-3.6c-0.3-2.8,0.6-4.7,2.9-6.4
	c10.7-7.5,21.3-15.2,31.9-22.8c3.2-2.3,4.3-1.7,4.6,2.2c0.7,11.1,5.7,19.9,14.5,26.5c1.1,0.8,2.1,1.9,2.7,3
	c5.6,9.6,13.8,15.4,24.8,17.3c3.8,0.7,4.3,1.9,1.7,4.8c-8.8,10-17.7,20-26.6,30C409.5,498.3,408,498.8,406.9,499.5z M390.2,422.8
	c-0.6,5.1,1.5,8.9,5.1,12.1C393.6,430.9,391.8,426.9,390.2,422.8c-0.2-1.5-0.4-3-0.6-4.8c-11.8,6.7-30.9,21.5-31.5,24.5
	c1.2-0.8,2.3-1.4,3.3-2.1c7.8-5.5,15.6-11,23.6-16.3C386.4,423.2,388.4,423.2,390.2,422.8z M406,449.3c-9.4,8.5-18.5,16.6-27.5,24.9
	c-0.6,0.5-0.9,1.8-0.7,2.5c3.4,9.8,9.6,17,19.5,20.9c8.5-9.9,16.8-19.5,25.2-29.2C413.4,463,412.1,461.4,406,449.3z M386.4,427.7
	c-10.3,7.2-20.4,14.1-30.2,21.3c-0.8,0.6-1,3-0.5,4.2c2.9,7.9,8.6,13.4,15.8,17.5c2.3,1.3,3.8,1.1,5.8-0.7
	c6.4-6,12.9-11.8,19.4-17.6c2.2-2,4.4-4,6.9-6.2C395.4,441.9,389,436.8,386.4,427.7z M405.1,494.4c0.5,0.4,1,0.9,1.4,1.3
	c8.9-9.6,17.5-19.5,26.5-29.7c-2.2-0.5-3.7-0.9-4.1-1c-1.2,2.1-1.8,3.8-2.9,5.1C419.1,478.3,412.1,486.3,405.1,494.4z"/>
<path class="st0" d="M442.5,127.9c6.4,0,12.8-0.1,19.2,0.1c1.6,0,3.7,0.3,4.6,1.3c2.1,2.5,3.4,5.5,7.5,5.1c0.5-0.1,1.4,1.9,1.8,3
	c3.6,10.2,1.9,20-2.7,29.5c-0.9,1.9-1.3,4.5-0.8,6.5c2.3,10.4,1.2,20.2-4.5,29.3c-1.2,1.9-2.4,3.2-5.1,2.3c-1-0.3-2.4,1-3.7,1.4
	c-2.1,0.7-4.4,2.4-6.2,2c-12.6-2.7-25.2-5.8-37.8-8.8c-4.9-1.2-5.1-2.1-1.7-5.7c7.5-7.8,10.8-17,9.9-27.8c-0.1-1.6,0.2-3.3,0.7-4.8
	c3.3-10.2,2.1-19.7-3.2-29c-0.6-1.1-0.8-2.5-1.2-3.8c1.3-0.3,2.5-0.9,3.8-0.9c6.4-0.1,12.8,0,19.2,0
	C442.5,127.8,442.5,127.8,442.5,127.9z M428.3,136.5c0.4,4.5,0.8,8.9,1.3,14.4C431.9,145.1,429.7,140.9,428.3,136.5
	c-0.5-3,1.6-2.5,3.3-2.5c7.6-0.1,15.3-0.1,22.9-0.1c3.3,0,6.5,0,9.8,0c0-0.6,0-1.2,0-1.7c-12.9-0.7-25.8-0.6-40.2-0.8
	C425.9,133.7,427.1,135.1,428.3,136.5z M421.5,192c-1.5,1.1-3,2.3-5.5,4.1c14.2,2.8,26.6,7,39.7,8c-1.2-1-2.4-1.5-3.8-1.8
	c-9.3-2.4-18.6-4.7-27.8-7.1c-1.5-0.4-4-0.3-2.6-3.3c3-3.7,5.4-7.7,4.7-12.8C424.5,183.4,423,187.7,421.5,192z M426.4,191.9
	c12.2,3.1,23.7,6,35.3,8.8c1.1,0.3,3.2-0.7,3.8-1.8c4.5-7.9,5.1-16.3,2.8-25c-0.3-1.1-1.9-2.4-3-2.6c-5.7-1-11.5-1.6-17.3-2.3
	c-6.1-0.7-12.3-1.4-18.7-2.1C431,175.8,431.5,183.9,426.4,191.9z M429.5,162.9c12.5,1.5,24.4,3,36.4,4.3c1.1,0.1,2.9-1,3.5-2
	c4.2-7.6,5.4-15.6,3.5-24.1c-0.6-2.5-1.7-3.3-4.3-3.3c-8.5,0.1-16.9,0.1-25.4,0.1c-3.3,0-6.5,0-10.2,0
	C436,147,433.6,154.9,429.5,162.9z"/>
<path class="st0" d="M511,296.7c0.7,7.6-6.8,6.6-9.4,10.8c2.4,11.7,11,22.3,9.4,36.3c-9.7-12.2-22.8-22-19.8-40.1
	c-9.5-2.4-14.7-9.5-18.5-17.8c-2.2-4.8-3.9-9.8-5.9-14.7c-0.6-1.5-1.5-3-2.6-4.2c-1.5-1.8-1.5-3.2,0.6-4.4
	c15.2-9.2,30.5-18.3,45.9-27.6c1.2,3,0.2,4.5-2.2,5.9c-12.5,7.3-24.8,14.9-37.2,22.3c-1,0.6-2.1,1.3-3.4,2.1
	c8.5,9.5,16.7,18.7,25.1,28.2c5.9-3.5,11.7-7,17.5-10.4c0.4,0.3,0.8,0.7,1.2,1c-1,1.5-1.8,3.5-3.2,4.4c-4.1,2.8-8.5,5.3-13.1,8.1
	c1.3,2.3,2.5,4.4,4,6.8C503.3,301.2,507,299.1,511,296.7z M496.1,304.7c-4.4,6.1,2.1,20,10.1,26.9
	C502.7,322.5,499.5,313.8,496.1,304.7z M474.4,278.4c1.9,9.6,11.1,22.2,18,20.4C486.3,291.8,480.3,285.1,474.4,278.4z"/>
<path class="st0" d="M297.1,282c-1.2,1.8-2,4.2-3.7,5.6c-13.1,10.5-26.4,20.9-39.7,31.1c-3.7,2.8-7.9,2.3-10.7-1.4
	c-8.2-10.4-16.3-20.8-24.4-31.3c-3-3.9-2.5-8,1.4-11c13-10.3,26-20.5,39.1-30.6c4.1-3.2,8.2-2.8,11.4,1.2
	c8.2,10.3,16.3,20.8,24.4,31.3C295.7,278.2,296.2,279.8,297.1,282z M292.9,281.8c-0.7-1.3-1-2.3-1.7-3.2
	c-7.8-10.1-15.7-20.2-23.6-30.3c-1.9-2.4-4-2.7-6.5-0.8c-12.9,10.1-25.8,20.2-38.7,30.3c-2.3,1.8-2.5,3.8-0.7,6.1
	c8,10.2,15.9,20.4,23.9,30.6c1.8,2.3,3.8,2.6,6.1,0.8c12.9-10.1,25.8-20.2,38.7-30.3C291.5,284.2,292.1,283,292.9,281.8z"/>
<path class="st0" d="M387.5,47.7c0-4,2.3-7,6.3-7.6c13.3-2,26.7-3.9,40.1-5.7c4.4-0.6,7.6,2.1,8.3,6.9c1.7,10.7,3.1,21.5,4.6,32.2
	c0.7,5.1,1.4,10.2,2.2,15.3c1.1,6.7-1.1,10-8,11c-12.4,1.8-24.8,3.5-37.2,5.2c-5.1,0.7-8.5-1.5-9.2-6.2c-2.5-16.8-4.8-33.6-7.1-50.4
	C387.5,48.3,387.5,48,387.5,47.7z M403.1,101.5c12.2-1.8,24.5-3.5,36.7-5.3c5.3-0.8,6.1-1.5,5.3-6.7c-2.1-15.7-4.4-31.4-6.6-47.1
	c-0.4-3.1-2-4.5-5.1-4c-12.8,1.8-25.6,3.5-38.4,5.4c-2.8,0.4-4.1,2.1-3.7,5c2.3,16.2,4.6,32.5,6.8,48.7
	C398.7,100.4,400.1,101.8,403.1,101.5z"/>
<path class="st0" d="M59.7,74c8.2,0,16.4-0.2,24.6,0.1c6.3,0.2,8.6,2.9,8.5,9.3c-0.3,12-0.7,23.9-1.2,35.9
	c-0.3,8.2-2.9,10.3-11.3,10c-14.9-0.6-29.7-1-44.6-1.5c-8-0.3-10.1-2.5-9.9-10.5c0.3-11.8,0.7-23.6,1.2-35.5
	c0.3-7.4,2.8-9.5,10.2-9.4c7.5,0.1,15,0,22.5,0C59.7,72.9,59.7,73.5,59.7,74z M58.8,123.7c0,0.6,0,1.1,0,1.7c7.9,0,15.8-0.1,23.7,0
	c3.2,0,5-1.2,5.1-4.5c0.4-12.8,0.9-25.6,1.3-38.4c0.1-3-1.3-4.7-4.4-4.8c-16.1-0.5-32.2-1.1-48.3-1.7c-3.7-0.1-5.3,1.4-5.4,5.1
	c-0.3,12.4-0.8,24.7-1.3,37.1c-0.2,3.7,1.4,5.4,5.1,5.4C42.7,123.7,50.8,123.7,58.8,123.7z"/>
<path class="st0" d="M294.1,151.3c1.7,1.4,4.4,2.6,5.6,4.7c8.5,14.2,16.7,28.6,24.9,43c2.5,4.5,1.5,8.4-2.9,11
	c-11.3,6.6-22.6,13.2-33.9,19.6c-4.2,2.4-8.3,1.4-10.8-2.8c-8.5-14.5-16.9-29.1-25.2-43.8c-2.2-3.9-1.2-7.8,2.7-10.1
	c11.6-6.9,23.3-13.5,35-20.2C290.5,152.2,291.8,152,294.1,151.3z M322.4,203.6c-0.7-1.5-1-2.4-1.5-3.3c-8-14-16.1-27.9-24.1-41.9
	c-1.6-2.9-3.7-3.5-6.5-1.8c-10.9,6.4-21.9,12.7-32.9,19c-2.8,1.6-3.5,3.7-1.9,6.6c8.1,14.1,16.3,28.2,24.4,42.3
	c1.5,2.7,3.5,3.3,6.3,1.7c11.1-6.4,22.2-12.8,33.2-19.2C320.6,206.2,321.5,204.7,322.4,203.6z"/>
<path class="st0" d="M120.8,278.1c-2.4-1.2-4.4-1.8-6-3c-10-8-20-16-29.9-24.1c-4.2-3.4-4.7-7.5-1.3-11.7
	c10.2-12.8,20.6-25.6,31-38.3c3.5-4.3,7.3-4.7,11.6-1.2c10,8,19.9,16,29.8,24.1c4.4,3.6,4.9,7.6,1.4,12
	c-10.2,12.7-20.4,25.4-30.8,37.9C125.2,275.5,122.9,276.6,120.8,278.1z M120.8,200.8c-1.4,1.2-2.9,2.2-3.9,3.5
	c-9.8,12.1-19.6,24.2-29.4,36.3c-3,3.7-2.9,4.9,0.7,7.9c9.4,7.6,18.8,15.3,28.2,22.9c3.7,3,5,2.9,7.9-0.7c10-12.3,19.9-24.7,29.9-37
	c2.2-2.7,2.1-4.8-0.6-7.1c-9.8-7.8-19.4-15.8-29.2-23.6C123.5,202.3,122.4,201.8,120.8,200.8z"/>
<path class="st0" d="M290.7,477c-1.4,1.7-2.6,4.5-4.7,5.6c-15,7.9-30.1,15.6-45.3,23.2c-4,2-7.8,0.7-9.9-3.3
	c-6.2-11.8-12.2-23.7-18.1-35.7c-2.1-4.2-0.8-8.1,3.4-10.3c14.8-7.7,29.7-15.3,44.6-22.7c4.6-2.3,8.5-0.9,10.8,3.7
	c5.9,11.5,11.8,23,17.6,34.6C289.7,473.2,289.9,474.6,290.7,477z M265,436.2c-1.3,0.5-2,0.7-2.6,1c-14.7,7.5-29.5,15-44.2,22.5
	c-2.8,1.4-3.2,3.5-1.8,6.2c5.8,11.3,11.5,22.5,17.2,33.8c1.5,3,3.6,3.6,6.5,2.1c14.5-7.4,29-14.8,43.5-22.2c2.8-1.4,3.4-3.4,2-6.2
	c-5.8-11.4-11.6-22.8-17.5-34.2C267.4,438.1,266,437.1,265,436.2z"/>
<path class="st0" d="M353.4,405.6c0.1,1.5,0.3,3.1,0.3,4.6c0,4.4-2.6,7.5-7,7.8c-16.8,1.2-33.6,2.4-50.4,3.5c-5,0.3-7.9-2.4-8.2-7.4
	c-0.9-12.9-1.9-25.8-2.7-38.7c-0.4-5.5,2.1-8.6,7.5-9c16.5-1.3,33-2.4,49.5-3.5c5.1-0.3,8,2.5,8.4,7.7c0.9,11.7,1.7,23.3,2.6,35
	C353.4,405.6,353.4,405.6,353.4,405.6z M338,367.1c-13.7,1-29,2.1-44.2,3.2c-3.6,0.2-4.9,2.1-4.6,5.4c0.9,12.3,1.8,24.7,2.6,37
	c0.3,3.9,2,5.4,5.9,5.1c15.5-1.2,31-2.2,46.6-3.3c5-0.4,5.9-1.5,5.6-6.6c-0.8-11.2-1.6-22.5-2.4-33.7
	C347,367.1,346.6,366.7,338,367.1z"/>
<path class="st0" d="M510.8,244c0.9,3.4,0.1,5.1-2.6,6.6c-6.2,3.4-12.1,7.3-18.2,10.8c-1.1,0.6-2.9,0.2-4.3,0.2
	c0.7-1.3,1-3.1,2.1-3.7C495.3,253.2,502.9,248.7,510.8,244z"/>
<path class="st0" d="M139.2,12.4c-0.6-0.4-1.7-0.8-1.8-1.3c-0.1-0.8,0.3-2.1,0.9-2.3c6.7-2.7,13.4-5.3,20.2-7.8
	c0.6-0.2,1.8,0.6,2.2,1.2c0.2,0.3-0.3,1.8-0.8,2C153.1,7,146.2,9.7,139.2,12.4z"/>
<path class="st0" d="M142.3,20.5c-0.7-0.5-1.8-0.8-1.8-1.3c-0.1-0.8,0.3-2.1,0.9-2.3c6.6-2.7,13.2-5.2,19.8-7.6
	c0.6-0.2,1.8,0.4,2.3,1c0.3,0.3-0.1,1.9-0.6,2.1C156.1,15.1,149.3,17.8,142.3,20.5z"/>
<path class="st0" d="M50.5,455.9c-9.6-2.4-18.4-4.6-27.3-6.9c-0.8-0.2-1.8-0.2-2.4-0.7c-0.7-0.6-1.1-1.6-1.7-2.4
	c0.9-0.5,2-1.6,2.8-1.5c10.3,2.4,20.5,4.9,30.7,7.7c1,0.3,2.3,2.4,2.2,3.6c-0.3,6.2-0.8,12.5-1.5,18.7c-0.1,1.1-1.7,1.9-2.6,2.9
	c-0.5-1.1-1.4-2.3-1.4-3.4C49.6,468.1,50.1,462.1,50.5,455.9z"/>
<path class="st0" d="M400.7,489.9c-2,0.7-3,1.4-3.9,1.3c-5.1-0.8-14.4-11.2-14.7-16.5c-0.1-0.8,0.7-1.6,1.1-2.4
	c0.8,0.5,2,0.8,2.5,1.5c2,3,3.5,6.4,5.7,9.1c1.5,1.9,4,2.9,6,4.4C398.2,488,399,488.6,400.7,489.9z"/>
<path class="st0" d="M404.1,483.4c-1,0.4-2,1.2-2.8,1c-4-0.8-12.4-10.2-12.8-14.2c-0.1-0.7,0.4-1.7,0.9-2c0.5-0.3,1.9-0.1,2.1,0.3
	c2.9,5.3,6.3,10.1,11.8,13.2C403.6,481.8,403.7,482.4,404.1,483.4z"/>
<path class="st0" d="M397.9,461.9c0.4,0.9,0.6,1.9,1.2,2.7c2.7,3.1,5.5,6.1,8.1,9.3c0.7,0.8,0.8,2.1,1.1,3.1c-1,0-2.5,0.5-2.9,0
	c-3.5-3.7-6.8-7.4-10-11.4c-0.4-0.4,0.6-1.9,0.9-2.9C396.8,462.4,397.3,462.2,397.9,461.9z"/>
<path class="st0" d="M414.4,470.2c-1.4,0.2-3.1,1-3.6,0.5c-3.2-3.2-6.1-6.6-9-10.1c-0.3-0.4,0.2-1.8,0.8-2.4c0.3-0.3,1.7,0,2.2,0.4
	c3,3.2,5.9,6.5,8.9,9.8C413.9,468.6,413.9,469.1,414.4,470.2z"/>
<path class="st0" d="M362.7,448.3c0.5,0.7,1.3,1.3,1.6,2c2,6.4,6.6,10.4,12.3,13.6c0.8,0.4,1,1.8,1.5,2.8c-1.1,0.1-2.5,0.8-3.4,0.4
	c-6.3-3.2-11.3-7.7-13.6-14.5c-0.4-1.2,0.1-2.7,0.2-4.1C361.8,448.4,362.2,448.4,362.7,448.3z"/>
<path class="st0" d="M369.9,444.7c0.6,0.7,1.2,1.4,1.8,2.1c3.2,3.6,6.5,7.1,9.6,10.7c0.8,0.9,1.2,2.1,1.8,3.2
	c-1.2,0-2.8,0.6-3.7,0.1c-5-3-9.1-6.9-11.1-12.5c-0.4-1,0.2-2.3,0.3-3.5C369,444.8,369.5,444.8,369.9,444.7z"/>
<path class="st0" d="M376.2,439.7c1.7,1.5,2.3,2,2.9,2.6c2.9,3.1,5.7,6.3,8.5,9.5c0.6,0.7,0.8,1.8,1.2,2.7c-1.1,0.2-2.7,0.9-3.1,0.4
	c-3.5-3.5-6.8-7.1-9.9-10.9C375.2,443.4,375.9,441.8,376.2,439.7z"/>
<path class="st0" d="M383.1,435.3c1.6,1.4,2.2,1.8,2.7,2.3c2.5,2.7,5,5.4,7.3,8.3c0.6,0.8,0.8,2,1.1,3c-1.1,0-2.6,0.6-3.2,0
	c-2.9-2.9-5.7-5.9-8.3-9.1C382.2,439.2,382.9,437.5,383.1,435.3z"/>
<path class="st0" d="M465.5,183c-1.4,4.1-2.8,8.3-4.4,12.3c-0.3,0.7-1.9,0.9-2.9,1.3c-0.1-1-0.7-2.2-0.3-2.9
	c3.4-5.6,3.5-11.5,2.4-17.7c-0.2-1,0.7-2.3,1-3.4c0.9,0.9,2.2,1.6,2.5,2.7c0.7,2.4,0.8,4.9,1.2,7.4
	C465.1,182.8,465.3,182.9,465.5,183z"/>
<path class="st0" d="M457,180.7c-1.1,3.8-2.1,7.7-3.3,11.4c-0.3,0.7-1.6,1.1-2.5,1.7c-0.3-1.1-1-2.2-0.9-3.2c0.4-5,1-10,1.7-15
	c0.1-1,1-1.9,1.5-2.9c0.8,0.8,2,1.5,2.3,2.4c0.5,1.7,0.4,3.6,0.6,5.4C456.6,180.6,456.8,180.6,457,180.7z"/>
<path class="st0" d="M448.4,179.6c-0.8,3.2-1.5,6.4-2.6,9.5c-0.3,0.8-1.8,1.1-2.7,1.6c-0.3-1-0.9-2-0.8-2.9
	c0.4-4.2,0.9-8.4,1.5-12.5c0.2-1,1.1-1.9,1.6-2.8c0.7,0.8,1.8,1.5,2.1,2.5c0.4,1.4,0.3,3,0.4,4.5C448,179.5,448.2,179.6,448.4,179.6
	z"/>
<path class="st0" d="M439.7,179.5c-0.4,1.6-0.8,4.4-1.8,6.9c-0.3,0.9-1.8,1.3-2.7,1.9c-0.3-1-0.9-2.1-0.8-3.1
	c0.3-3.4,0.7-6.8,1.3-10.2c0.2-1.1,1.1-2.1,1.6-3.1c0.7,0.9,1.6,1.6,1.9,2.6C439.7,175.8,439.6,177.2,439.7,179.5z"/>
<path class="st0" d="M469.3,151.1c-1.1,3.5-2.4,7.8-4,12c-0.3,0.9-2,1.3-3.1,1.9c-0.1-1.2-0.6-2.5-0.2-3.5
	c2.5-5.7,4.2-11.4,2.1-17.7c-0.2-0.8,0.5-1.8,0.8-2.8c0.9,0.6,2.4,0.9,2.7,1.7C468.3,145.1,468.6,147.6,469.3,151.1z"/>
<path class="st0" d="M460.5,151.1c-0.8,2.6-1.7,6.4-3,10c-0.3,0.8-2,1.2-3.1,1.8c-0.1-1.1-0.4-2.2-0.3-3.3c0.5-4.7,1.2-9.5,1.9-14.2
	c0.2-1.1,0.9-2.2,1.4-3.3c0.8,1,1.9,1.8,2.2,2.9C460.3,146.6,460.2,148.3,460.5,151.1z"/>
<path class="st0" d="M451.9,150.5c-0.7,2.5-1.4,5.8-2.5,9.1c-0.3,0.8-1.8,1.2-2.7,1.7c-0.2-1-0.8-2.1-0.7-3.1
	c0.4-3.8,1-7.6,1.7-11.3c0.2-1.3,0.9-2.5,1.3-3.8c0.8,1.1,1.8,2.1,2.3,3.3C451.7,147.2,451.6,148.4,451.9,150.5z"/>
<path class="st0" d="M443.5,149.9c-0.6,2.3-1,5-1.9,7.6c-0.4,1-1.8,1.5-2.8,2.2c-0.2-1.2-0.8-2.4-0.7-3.6c0.3-3.3,0.7-6.5,1.2-9.8
	c0.2-1,0.8-2,1.3-3c0.8,0.9,1.9,1.7,2.4,2.8C443.4,147.1,443.3,148.3,443.5,149.9z"/>
<path class="st0" d="M262.9,250.4c1,0.9,2.1,1.5,2.8,2.4c7.1,9,14,18,21.1,26.9c1.9,2.4,1.5,4.2-0.8,6c-9.7,7.5-19.3,15.1-28.9,22.6
	c-2.3,1.8-4.3,1.6-6.1-0.7c-7-9-14-18-21.1-27c-1.8-2.3-1.4-4.3,0.9-6.1c9.7-7.5,19.3-15.1,28.9-22.6
	C260.6,251.4,261.6,251,262.9,250.4z M262.5,254.8c-9.9,7.8-19.7,15.4-29.7,23.2c7.2,9.3,14.3,18.3,21.6,27.6
	c10.1-7.9,19.8-15.5,29.7-23.2C276.7,273.1,269.7,264.1,262.5,254.8z"/>
<path class="st0" d="M442,83c0.4,3.2-1,4.5-4.1,4.9c-11,1.5-22,3.1-33,4.7c-3.1,0.5-4.7-0.7-5.2-3.8c-1.7-12.3-3.5-24.5-5.2-36.7
	c-0.4-2.8,1.1-4.1,3.7-4.4c11.3-1.6,22.6-3.2,33.8-4.8c2.7-0.4,4.3,0.7,4.7,3.4C438.5,58.5,440.2,70.8,442,83z M438.2,84
	c-1.7-12.6-3.4-24.7-5.2-37.3c-11.7,1.6-23,3.2-34.7,4.9c1.8,12.6,3.5,24.8,5.3,37.3C415.3,87.3,426.5,85.7,438.2,84z"/>
<path class="st0" d="M62.5,80.3c5.8,0,11.7,0,17.5,0c3.3,0,4.8,1.5,4.7,4.8c-0.4,11.1-0.8,22.3-1.1,33.4c-0.1,3.2-1.4,4.6-4.6,4.5
	c-12.1-0.4-24.2-0.8-36.3-1.2c-3.1-0.1-4.6-1.4-4.4-4.6c0.4-11.3,0.8-22.6,1.1-33.8c0.1-3.6,2.2-4.3,5.2-4.3c6,0.1,12,0,17.9,0
	C62.5,79.5,62.5,79.9,62.5,80.3z M80,84.2c-11.8-0.4-24.1-0.9-37.2-1.3c0,11.9,0,23.4,0,35c12,0.4,24.2,0.8,37.2,1.3
	C80,107.4,80,96,80,84.2z"/>
<path class="st0" d="M283.2,222.6c-1-0.9-2.2-1.6-2.9-2.7c-6.3-10.7-12.4-21.4-18.6-32.2c-1.5-2.6-0.7-4.4,1.8-5.8
	c9.8-5.6,19.5-11.2,29.3-16.9c2.9-1.7,4.7-0.8,6.2,1.8c6,10.5,12.1,21,18.2,31.4c1.6,2.7,1.2,4.6-1.6,6.2
	c-9.8,5.6-19.5,11.3-29.3,16.9C285.4,221.7,284.5,222,283.2,222.6z M283.8,218.2c10.2-5.9,20.2-11.7,30.3-17.5
	c-6.5-11.2-12.6-21.8-18.9-32.6c-10.2,5.9-20.1,11.6-30.3,17.5C271.3,196.6,277.4,207.2,283.8,218.2z"/>
<path class="st0" d="M124,265.9c-1.2-0.7-2.2-1.1-3.1-1.8c-8.7-7-17.2-14-25.9-21c-2.8-2.3-2.8-4.3-0.6-7
	c7.5-9.1,14.9-18.3,22.3-27.6c2.2-2.8,4.3-3,7-0.8c8.5,7,17,13.9,25.6,20.7c2.6,2.1,3,4.1,0.9,6.7c-7.6,9.4-15.2,18.8-22.9,28.2
	C126.4,264.4,125.1,265.1,124,265.9z M120.4,210.2c-8,9.9-15.8,19.5-23.7,29.3c9.2,7.4,18.1,14.6,27.2,22c8-10,15.8-19.5,23.7-29.3
	C138.3,224.7,129.5,217.6,120.4,210.2z"/>
<path class="st0" d="M238.5,499.9c-0.7-1.4-1.3-2.7-2-4.1c-5.1-10-10.2-20.1-15.3-30.1c-1.4-2.7-0.8-4.7,2-6.1
	c10.7-5.4,21.3-10.8,31.9-16.3c3.1-1.6,5.1-1.2,6.7,2c5,9.9,10,19.8,15.1,29.7c1.3,2.5,1.1,4.5-1.6,5.9c-11,5.6-22,11.2-33,16.8
	c-0.7,0.4-1.6,0.5-2.3,0.8C239.4,499.1,238.9,499.5,238.5,499.9z M224.3,463.4c5.4,10.6,10.5,20.7,15.9,31.2
	c11.4-5.8,22.4-11.4,33.6-17.2c-5.5-10.7-10.6-20.8-15.9-31.1C246.5,452.1,235.7,457.6,224.3,463.4z"/>
<path class="st0" d="M305.1,414.6c-9,0.4-9,0.3-9.4-7.3c-0.6-9.7-1.3-19.4-2-29.1c-0.3-4.7,0.4-5.7,5-6.1
	c11.4-0.8,22.7-1.6,34.1-2.4c4.9-0.3,5.9,0.5,6.2,5.4c0.7,10.7,1.4,21.4,2.2,32c0.3,3.6-1.1,5-4.7,5.2
	C325.6,413,314.6,413.9,305.1,414.6z M299.8,411c12.8-0.9,25-1.7,37.6-2.6c-0.8-11.8-1.6-23.1-2.5-34.9c-12.6,0.9-24.9,1.8-37.6,2.7
	C298.2,387.9,299,399.2,299.8,411z"/>
<path class="st0" d="M254.1,267.6c0.9,0.9,1.8,1.5,2.4,2.3c3.8,4.8,7.6,9.5,11.2,14.4c0.7,0.9,0.4,2.6,0.5,3.9
	c-1.1-0.5-2.6-0.7-3.3-1.5c-4-4.9-7.9-10-11.8-15c-0.5-0.7-0.7-1.8-0.6-2.6C252.4,268.6,253.3,268.2,254.1,267.6z"/>
<path class="st0" d="M247.3,273.1c0.9,0.8,1.7,1.3,2.2,2c3.9,4.9,7.8,9.8,11.5,14.8c0.7,0.9,0.3,2.6,0.4,3.9
	c-1.1-0.5-2.6-0.7-3.3-1.6c-4-4.8-7.8-9.8-11.6-14.7c-0.6-0.8-0.8-2-0.8-3C245.7,274.1,246.7,273.7,247.3,273.1z"/>
<path class="st0" d="M275.9,281.4c-0.4,0.5-0.7,1.4-1.3,1.6c-0.6,0.2-1.7-0.1-2.1-0.7c-4.4-5.5-8.8-11.1-13-16.7
	c-0.4-0.5-0.2-2,0.3-2.5c0.5-0.4,2.1-0.3,2.4,0.1c4.5,5.6,8.9,11.3,13.4,17C275.7,280.6,275.7,280.9,275.9,281.4z"/>
<path class="st0" d="M408.7,76.9c-0.4-0.4-1.2-1.1-2-1.8c0.8-0.7,1.5-2,2.5-2.1c6.4-1.1,12.9-1.9,19.3-2.7c0.9-0.1,2,0.8,3,1.3
	c-0.8,0.8-1.4,2.1-2.3,2.3C422.6,75,416,75.8,408.7,76.9z"/>
<path class="st0" d="M407.4,68.3c-0.5-0.4-1.3-1.1-2.2-1.8c0.8-0.7,1.6-1.9,2.5-2.1c6.3-1,12.6-1.9,18.9-2.6
	c1.1-0.1,2.3,0.8,3.5,1.2c-1,0.8-2,2.1-3.1,2.3C420.7,66.5,414.4,67.3,407.4,68.3z"/>
<path class="st0" d="M406.2,59.8c-0.4-0.3-1.2-0.9-2-1.5c0.7-0.8,1.4-2.2,2.2-2.3c6.6-1.1,13.2-2,19.8-2.9c0.8-0.1,1.8,0.8,2.7,1.3
	c-0.7,0.8-1.4,2.2-2.2,2.4C420.1,57.9,413.5,58.7,406.2,59.8z"/>
<path class="st0" d="M53.8,100.5c0.1-3.3,0.2-6.6,0.5-9.9c0.1-0.8,1.2-1.5,1.8-2.2c0.6,0.8,1.7,1.5,1.7,2.3
	c-0.1,6.8-0.2,13.6-0.6,20.3c0,0.8-1.4,1.6-2.1,2.4c-0.5-0.8-1.5-1.6-1.5-2.5c-0.2-3.4-0.1-6.9-0.1-10.4
	C53.6,100.5,53.7,100.5,53.8,100.5z"/>
<path class="st0" d="M62.7,101c0-3.2-0.2-6.4,0.1-9.5c0.1-1,1.3-1.9,2.1-2.9c0.6,0.9,1.7,1.9,1.7,2.8c-0.1,6.5-0.3,13-0.7,19.5
	c-0.1,0.9-1.2,1.8-1.8,2.7c-0.7-1-1.9-2-1.9-3c-0.1-3.2,0.2-6.4,0.4-9.5C62.6,101,62.6,101,62.7,101z"/>
<path class="st0" d="M75,100.8c-0.2,3.5-0.2,7-0.6,10.4c-0.1,0.9-1.3,1.7-2,2.5c-0.5-0.8-1.5-1.6-1.5-2.5c0.1-6.5,0.2-13.1,0.6-19.6
	c0.1-1,1.4-1.9,2.1-2.9c0.5,1.1,1.5,2.2,1.6,3.3c0.2,2.9,0.1,5.8,0.1,8.8C75.1,100.8,75,100.8,75,100.8z"/>
<path class="st0" d="M306.5,198.1c-0.7,0.6-1.3,1.4-2,1.9c-5.5,3.2-11,6.5-16.6,9.5c-0.9,0.5-2.4,0-3.6-0.1c0.6-1.1,0.9-2.5,1.8-3.1
	c5.4-3.3,11-6.5,16.6-9.6c0.9-0.5,2.4-0.1,3.6-0.1C306.4,197.2,306.4,197.7,306.5,198.1z"/>
<path class="st0" d="M281.1,203c-0.3-0.3-1.1-0.7-1.1-1.2c0-0.8,0.2-2.1,0.8-2.4c6.1-3.6,12.2-7.1,18.4-10.5
	c0.5-0.3,1.8,0.2,2.4,0.7c0.3,0.3,0.1,1.9-0.3,2.1c-6.4,3.8-12.9,7.6-19.4,11.3C281.8,203,281.6,203,281.1,203z"/>
<path class="st0" d="M298,183.1c-0.7,0.6-1.3,1.3-2.1,1.8c-5.5,3.2-11,6.5-16.6,9.6c-0.9,0.5-2.4-0.1-3.6-0.1c0.5-1,0.7-2.4,1.5-2.9
	c5.6-3.4,11.2-6.7,16.9-9.8c0.9-0.5,2.4,0,3.7,0.1C297.9,182.2,297.9,182.7,298,183.1z"/>
<path class="st0" d="M121,217.9c0.9,0.6,1.6,1,2.3,1.5c4.9,3.9,9.7,7.8,14.5,11.9c0.8,0.7,0.9,2.2,1.2,3.4c-1.2-0.1-2.7,0.1-3.5-0.5
	c-5.1-3.9-10-7.9-14.9-12c-0.7-0.6-1.1-1.8-1.2-2.7C119.3,219,120.4,218.4,121,217.9z"/>
<path class="st0" d="M129,247.7c-1.2,0.3-2.7,1.2-3.2,0.8c-5.7-4.4-11.3-9-16.8-13.6c-0.5-0.4-0.4-1.8-0.1-2.5
	c0.2-0.4,1.7-0.7,2.1-0.4c5.8,4.5,11.5,9.2,17.2,13.8C128.5,246,128.5,246.5,129,247.7z"/>
<path class="st0" d="M134.5,241.1c-1.5,0.2-3,0.8-3.6,0.4c-5.6-4.3-11.1-8.8-16.5-13.3c-0.5-0.4-0.7-2-0.3-2.5
	c0.4-0.5,2-0.8,2.4-0.4c5.7,4.4,11.2,9,16.8,13.6C133.7,239.2,133.9,239.8,134.5,241.1z"/>
<path class="st0" d="M253.4,481.2c-0.5,0.7-0.9,1.8-1.4,1.8c-0.8,0.1-2.1-0.3-2.4-0.9c-3.3-6.2-6.5-12.5-9.6-18.9
	c-0.3-0.6,0.2-1.8,0.7-2.4c0.3-0.3,1.9-0.1,2.1,0.3C246.5,467.8,249.9,474.4,253.4,481.2z"/>
<path class="st0" d="M234.3,464.3c0.6,0.8,1.4,1.6,1.9,2.5c2.9,5.5,5.8,11.1,8.4,16.7c0.5,1-0.1,2.4-0.1,3.6c-1-0.6-2.6-1-3.1-1.9
	c-3.1-5.7-6.1-11.5-8.9-17.4c-0.4-0.9,0.2-2.3,0.3-3.5C233.4,464.3,233.9,464.3,234.3,464.3z"/>
<path class="st0" d="M260.8,477.7c-0.3,0.3-0.7,1.2-1.1,1.2c-0.8,0-2.1-0.3-2.4-0.9c-3.3-6.2-6.5-12.5-9.6-18.9
	c-0.3-0.6,0.2-2.1,0.7-2.4c0.5-0.3,2.1,0,2.4,0.5c3.4,6.4,6.6,12.8,9.8,19.2C260.7,476.8,260.7,477.1,260.8,477.7z"/>
<path class="st0" d="M317.1,403.1c-0.3,0.3-1,1.1-1.7,2c-0.7-0.9-2-1.8-2.1-2.8c-0.6-6.3-1.1-12.7-1.4-19c0-1,1.2-2.1,1.8-3.1
	c0.7,0.9,1.8,1.7,1.9,2.6C316.2,389.3,316.6,395.8,317.1,403.1z"/>
<path class="st0" d="M325.7,401.4c-0.2,0.4-0.9,1.7-1.7,3c-0.8-1.2-2.1-2.4-2.3-3.7c-0.6-5.8-0.9-11.7-1.1-17.5c0-1.2,1-2.5,1.5-3.7
	c0.7,1.1,1.9,2.2,2.1,3.3C324.9,388.6,325.2,394.4,325.7,401.4z"/>
<path class="st0" d="M308.4,398.5c0,1.7,0.2,3.4-0.1,5c-0.1,0.8-0.9,1.4-1.5,2.1c-0.7-0.5-1.9-1-2-1.6c-0.7-7.1-1.2-14.1-1.6-21.2
	c0-0.7,1-1.4,1.5-2.1c0.8,0.8,2.1,1.5,2.2,2.4c0.5,5.1,0.8,10.3,1.2,15.4C308.2,398.5,308.3,398.5,308.4,398.5z"/>
</svg>
