<?xml version="1.0" encoding="utf-8"?>
<!-- Generator: Adobe Illustrator 24.1.2, SVG Export Plug-In . SVG Version: 6.00 Build 0)  -->
<svg version="1.1" id="like" xmlns="http://www.w3.org/2000/svg" xmlns:xlink="http://www.w3.org/1999/xlink" x="0px" y="0px"
	 viewBox="0 0 64 64" style="enable-background:new 0 0 64 64;" xml:space="preserve">
<style type="text/css">
	.st0{fill:#CECECE;}
</style>
<path class="st0" d="M28.92,44.2c-1.27,0.2-2.35,0.4-3.43,0.54c-3.08,0.39-6.16,0.72-9.22-0.09c-0.46-0.12-0.91-0.27-1.34-0.47
	c-2.64-1.22-3.32-3.46-1.76-5.9c0.36-0.56,0.41-0.95-0.07-1.49c-1.49-1.69-1.36-4.36,0.32-5.88c0.62-0.57,0.8-1.07,0.6-1.89
	c-0.47-1.95,0.29-3.47,1.91-4.56c0.6-0.4,0.87-0.82,0.73-1.57c-0.34-1.7,0.31-3.04,1.91-3.66c0.95-0.37,2.02-0.61,3.03-0.61
	c5.09-0.04,10.17-0.04,15.26,0.07c4.05,0.08,5.06,1.21,5.06,5.23c0,3.54-0.09,7.08,0.02,10.61c0.09,3.03-0.76,5.73-2.31,8.26
	c-0.41,0.67-0.79,1.37-1.24,2.02c-2.19,3.19-3.37,6.68-3.3,10.58c0.01,0.81-0.07,1.65-0.29,2.43c-0.4,1.44-1.4,2.03-2.88,1.86
	c-1.83-0.2-3.08-1.24-3.91-2.81c-1.24-2.37-1.19-4.88-0.6-7.39C27.84,47.75,28.38,46.07,28.92,44.2z M43.99,37.71
	c0.01,1.49,1,2.53,2.47,2.56c1.71,0.04,3.41,0.04,5.12,0c1.53-0.04,2.53-1.08,2.53-2.62c0.01-5.47,0.01-10.93-0.01-16.4
	c-0.01-1.62-0.97-2.63-2.57-2.67c-1.64-0.04-3.29-0.05-4.93,0c-1.67,0.05-2.6,1.06-2.61,2.73c-0.01,2.69,0,5.37,0,8.06
	C43.99,32.15,43.98,34.93,43.99,37.71z"/>
</svg>
