<?xml version="1.0" encoding="utf-8"?>
<!-- Generator: Adobe Illustrator 24.1.2, SVG Export Plug-In . SVG Version: 6.00 Build 0)  -->
<svg version="1.1" id="Слой_1" xmlns="http://www.w3.org/2000/svg" xmlns:xlink="http://www.w3.org/1999/xlink" x="0px" y="0px"
	 viewBox="0 0 110.64 75.84" style="enable-background:new 0 0 110.64 75.84;" xml:space="preserve">
<style type="text/css">
	.st0{fill:#743DC5;}
	.st1{fill:#743CC5;}
	.st2{fill:#7640C6;}
	.st3{fill:#723AC4;}
</style>
<g>
	<path class="st0" d="M35.7,49.52c-10.02,0-20.03,0-30.05-0.01c-0.46,0-1.19,0.28-1.28-0.43c-0.11-0.86-0.29-1.79,0.15-2.63
		c0.13-0.26,0.51-0.13,0.77-0.13c11.97,0,23.95-0.11,35.92,0.05c7.24,0.1,14.47,0,21.7,0.12c0.83,0.01,1.04-0.23,1.04-1.04
		c-0.03-5.87,0.02-11.73-0.03-17.6c-0.01-0.99,0.28-1.22,1.24-1.21c6.26,0.05,12.51-0.06,18.77,0.05
		c7.08,0.12,14.16,0.03,21.24,0.05c0.96,0,1.29,0.24,1.25,1.23c-0.07,1.89-0.01,1.89-1.94,1.89c-12.05-0.02-24.11-0.02-36.16-0.08
		c-1.02,0-1.19,0.31-1.18,1.25c0.05,5.87,0.02,11.73,0.05,17.6c0,0.84-0.29,1.05-1.09,1.05c-10.13-0.02-20.27-0.01-30.4-0.01
		C35.7,49.62,35.7,49.57,35.7,49.52z"/>
	<path class="st1" d="M75.12,6.92c9.9,0,19.8,0,29.7,0.01c0.51,0,1.3-0.31,1.48,0.29c0.26,0.84,0.23,1.8-0.01,2.66
		c-0.11,0.41-0.7,0.21-1.07,0.21c-8.3-0.01-16.59-0.02-24.89-0.05C69.65,10,58.97,9.96,48.28,9.87c-1-0.01-1.32,0.19-1.31,1.27
		c0.06,5.9,0,11.81,0.03,17.72c0,0.82-0.29,0.97-1.02,0.97c-13.58-0.07-27.16-0.13-40.74-0.17c-0.72,0-1.02-0.25-0.94-0.95
		c0.01-0.08,0-0.16,0-0.23c0.03-2.23-0.23-1.93,1.95-1.92c12.17,0.04,24.34,0.09,36.51,0.15c0.53,0,0.73-0.09,0.79-0.68
		c0.12-1.29,0.03-2.56,0.02-3.84c-0.03-4.84,0.07-9.67,0.11-14.51c0-0.5,0.16-0.7,0.67-0.68c0.55,0.02,1.09-0.05,1.64-0.05
		C55.71,6.92,65.41,6.92,75.12,6.92z"/>
	<path class="st1" d="M30.8,39.88c-8.37,0-16.74,0-25.11-0.01c-0.46,0-1.2,0.28-1.31-0.4c-0.14-0.86-0.32-1.8,0.12-2.63
		c0.2-0.37,0.72-0.18,1.1-0.18c7.16-0.02,14.32-0.03,21.48-0.04c8.41-0.01,16.82,0,25.23,0c1.48,0,1.48,0,1.48-1.54
		c0-5.71,0.02-11.42-0.02-17.12c-0.01-0.91,0.15-1.28,1.2-1.28c14.83,0.08,29.65,0.11,44.48,0.16c1.99,0.01,3.99,0.07,5.98,0.06
		c0.66,0,0.97,0.11,0.98,0.88c0.02,2.2,0.06,2.2-2.12,2.2c-15.26-0.03-30.51-0.04-45.77-0.1c-1.09,0-1.45,0.2-1.44,1.38
		c0.08,5.75,0.02,11.49,0.07,17.24c0.01,0.97-0.25,1.24-1.24,1.24c-8.37-0.04-16.74-0.02-25.12-0.02
		C30.8,39.77,30.8,39.83,30.8,39.88z"/>
	<path class="st0" d="M76.78,62.28c0.02,2.87-1.91,4.85-5.13,5.27c-0.61,0.08-1.05,0-1.25,0.92c-0.21,0.94-1.34,0.3-2.05,0.44
		c-0.45,0.09-0.77-0.2-0.65-0.71c0.16-0.66-0.3-0.57-0.68-0.62c-1.12-0.15-2.22-0.36-3.2-0.97c-2.04-1.26-2.67-3.14-2.31-5.42
		c0.36-2.29,1.88-3.48,3.96-4.1c0.48-0.14,0.99-0.2,1.49-0.26c0.44-0.05,0.89-0.03,0.72-0.71c-0.08-0.3,0.12-0.56,0.43-0.59
		c0.54-0.05,1.09-0.01,1.64-0.04c0.79-0.05,0.68,0.52,0.78,1.01c0.1,0.48,0.58,0.28,0.89,0.33c2.42,0.35,4.42,1.26,5.2,3.83
		c0.06,0.18,0.14,0.37,0.16,0.55C76.8,61.58,76.78,61.93,76.78,62.28z M67.85,62.25c0-0.86-0.01-1.72,0-2.57
		c0.01-0.49-0.18-0.7-0.7-0.66c-1.67,0.14-2.88,1.24-3.07,2.84c-0.19,1.62,0.69,2.84,2.41,3.34c1.24,0.36,1.35,0.29,1.36-0.96
		C67.86,63.57,67.85,62.91,67.85,62.25z M70.49,62.13c0,0.9,0.01,1.79,0,2.69c-0.01,0.46,0.16,0.61,0.63,0.57
		c1.61-0.15,2.94-1.28,3.11-2.69c0.21-1.74-0.59-2.9-2.4-3.49c-1.2-0.39-1.34-0.3-1.34,0.94C70.48,60.8,70.49,61.46,70.49,62.13z"/>
	<path class="st2" d="M19.79,10.1c-4.77,0-9.54-0.02-14.31,0.02C4.53,10.13,4.18,9.9,4.22,8.9c0.09-2.29-0.22-1.98,2.03-1.98
		c9.27-0.01,18.53,0,27.8,0.01c0.47,0,1.21-0.27,1.34,0.34c0.18,0.85,0.28,1.8-0.08,2.64c-0.16,0.38-0.72,0.19-1.09,0.19
		C29.41,10.11,24.6,10.1,19.79,10.1z"/>
	<path class="st2" d="M91.05,49.77c-4.74,0-9.47-0.03-14.21,0.02c-1.06,0.01-1.56-0.24-1.36-1.36c0.05-0.27,0.04-0.55,0.01-0.82
		c-0.11-0.84,0.28-1.08,1.08-1.07c2.46,0.04,4.93,0.01,7.4,0.01c7.12,0,14.24,0.02,21.37-0.02c1.04-0.01,1.35,0.28,1.26,1.34
		c-0.15,1.9-0.08,1.9-2.04,1.9C100.05,49.77,95.55,49.77,91.05,49.77z"/>
	<path class="st2" d="M91.09,39.89c-4.77,0-9.54-0.02-14.31,0.02c-0.92,0.01-1.33-0.17-1.29-1.21c0.07-2.02,0.01-2.02,2.08-2.02
		c9.23,0,18.46,0.01,27.68-0.02c1.07,0,1.57,0.25,1.32,1.38c-0.04,0.19-0.04,0.4,0,0.58c0.25,1.12-0.31,1.31-1.29,1.3
		C100.56,39.87,95.82,39.89,91.09,39.89z"/>
	<path class="st3" d="M19.75,19.52c-4.77,0-9.55-0.02-14.32,0.02c-0.85,0.01-1.25-0.11-1.21-1.11c0.08-1.98,0.01-1.98,2-1.98
		c9.31,0,18.63,0,27.94,0.01c0.43,0,1.09-0.25,1.21,0.37c0.15,0.83,0.27,1.72-0.08,2.53c-0.14,0.33-0.65,0.16-0.98,0.16
		C29.45,19.52,24.6,19.52,19.75,19.52z"/>
	<path class="st2" d="M7.62,63.85c1.72-2.29,3.43-4.59,5.16-6.86c0.32-0.42,0.6-0.92,1.21-1.04c1.64-0.31,2.01-0.02,2.01,1.63
		c0,3.24-0.04,6.49,0.03,9.73c0.02,1.1-0.47,1.19-1.34,1.18c-0.83-0.01-1.38,0-1.33-1.14c0.1-2.16,0.03-4.33-0.24-6.6
		c-1.08,1.39-2.17,2.77-3.24,4.17c-0.64,0.83-1.38,1.62-1.85,2.54c-0.71,1.36-1.88,0.98-2.96,1c-0.47,0.01-0.53-0.38-0.53-0.75
		c0-3.67,0.01-7.34,0.01-11.01c0-0.54,0.25-0.79,0.79-0.75c0.16,0.01,0.31,0,0.47,0c1.54-0.01,1.54-0.01,1.54,1.49
		c0,2.1,0,4.2,0,6.3C7.44,63.77,7.53,63.81,7.62,63.85z"/>
	<path class="st2" d="M44.64,61.02c0,1.41,0.02,2.81-0.01,4.22c-0.01,0.65,0.1,1.13,0.9,0.89c0.75-0.22,0.9,0.21,0.9,0.8
		c0.01,0.86-0.09,1.73,0.03,2.58c0.17,1.24-0.33,1.47-1.48,1.47c-1.12,0.01-1.47-0.37-1.29-1.39c0.17-0.96-0.28-1.15-1.17-1.14
		c-2.66,0.05-5.32,0.01-7.97,0.03c-0.79,0.01-1.19-0.12-1.14-1.1c0.13-2.52,0.13-5.06,0.15-7.58c0.01-1.03-0.05-2.06-0.14-3.09
		c-0.05-0.53,0.17-0.72,0.63-0.75c0.31-0.02,0.63,0.03,0.94-0.01c0.86-0.12,1.17,0.21,1.15,1.1c-0.05,2.69,0.01,5.39-0.03,8.09
		c-0.01,0.81,0.21,1.12,1.05,1.08c1.25-0.06,2.5-0.04,3.75-0.01c0.64,0.02,0.92-0.17,0.91-0.86c-0.04-2.84-0.01-5.68-0.08-8.52
		c-0.02-0.64,0.12-0.87,0.72-0.87c0.04,0,0.08,0,0.12,0c2.06-0.12,2.06-0.12,2.06,1.91C44.64,58.91,44.64,59.97,44.64,61.02z"/>
	<path class="st0" d="M50.74,63.8c1.53-1.58,2.49-3.22,3.69-4.67c0.64-0.78,1.22-1.61,1.82-2.42c0.21-0.29,0.45-0.5,0.81-0.63
		c1.65-0.59,2.38-0.11,2.39,1.6c0,3.24-0.05,6.49,0.03,9.73c0.03,1.22-0.66,1.1-1.42,1.08c-0.73-0.03-1.56,0.26-1.49-1.09
		c0.12-2.16,0.03-4.34-0.22-6.61c-0.98,1.27-1.96,2.53-2.93,3.8c-0.85,1.11-1.7,2.22-2.51,3.36c-0.65,0.91-1.59,0.57-2.37,0.48
		c-0.79-0.09-0.41-0.89-0.41-1.36c-0.03-3.36,0.02-6.72-0.04-10.08c-0.02-1.01,0.45-1.07,1.21-1.02c0.72,0.05,1.51-0.19,1.46,1.05
		C50.69,59.16,50.74,61.33,50.74,63.8z"/>
	<path class="st0" d="M30.31,62.34c0,1.72-0.04,3.44,0.02,5.15c0.03,0.77-0.2,1.02-0.98,0.99c-1.81-0.07-1.74,0.26-1.7-1.67
		c0.03-1.12,0.48-2.56-0.17-3.29c-0.68-0.75-2.14-0.21-3.26-0.23c-2.37-0.04-2.37-0.01-2.37,2.35c0,0.51-0.05,1.02,0.01,1.52
		c0.13,1-0.18,1.37-1.26,1.31c-1.7-0.1-1.7-0.02-1.7-1.76c0-3.08,0-6.17,0-9.25c0-0.55-0.1-1.18,0.53-1.41
		c0.7-0.25,1.47-0.2,2.19-0.02c0.32,0.08,0.22,0.46,0.22,0.72c0.01,1.17,0.03,2.34-0.01,3.51c-0.02,0.57,0.16,0.76,0.72,0.75
		c1.48-0.03,2.97-0.02,4.45,0c0.51,0.01,0.68-0.18,0.67-0.69c-0.03-1.17,0.03-2.34-0.01-3.51c-0.04-1.03,0.66-0.88,1.26-0.86
		c0.62,0.01,1.41-0.24,1.39,0.87C30.29,58.67,30.31,60.5,30.31,62.34z"/>
	<path class="st2" d="M82.03,55.95c1.56-0.02,3.13-0.07,4.62,0.46c2.03,0.71,3.05,2.45,2.81,4.71c-0.2,1.93-1.65,3.33-3.63,3.7
		c-1.16,0.21-2.33,0.25-3.49,0.2c-0.75-0.04-0.98,0.23-0.9,0.94c0.04,0.35-0.04,0.71,0.02,1.05c0.18,1.18-0.24,1.57-1.47,1.51
		c-1.01-0.05-1.35-0.29-1.33-1.34c0.06-3.36,0.05-6.72,0.01-10.07c-0.01-0.85,0.25-1.23,1.13-1.16
		C80.54,55.99,81.29,55.95,82.03,55.95z M83.41,58.41c0-0.01,0-0.02,0-0.03c-0.47,0-0.93,0-1.4,0c-0.3,0-0.56,0.07-0.55,0.44
		c0.03,1.23-0.46,2.7,0.2,3.63c0.49,0.68,1.97,0.15,3.01,0.2c0.18,0.01,0.38-0.06,0.56-0.13c1.13-0.38,1.66-1.21,1.5-2.42
		c-0.15-1.1-0.91-1.57-1.93-1.68C84.35,58.36,83.88,58.41,83.41,58.41z"/>
	<path class="st2" d="M91.16,61.97c0-1.76,0.02-3.51-0.01-5.27c-0.01-0.51,0.2-0.69,0.66-0.76c1.79-0.28,2.03-0.08,2.04,1.73
		c0.01,2.41,0.01,2.41,2.47,2.4c1.05,0,2.11-0.05,3.12,0.3c1.58,0.54,2.46,1.87,2.47,3.72c0.01,1.94-0.91,3.37-2.53,3.95
		c-1.82,0.64-3.71,0.42-5.57,0.43c-2.58,0.01-2.58-0.01-2.57-2.63c0-0.66,0-1.33,0-1.99c0-0.63,0-1.25,0-1.88
		C91.21,61.98,91.18,61.97,91.16,61.97z M95.92,62.21c-2.12,0-2.12,0-2.12,2.16c0,0.43,0.01,0.86,0,1.28c0,0.37,0.12,0.6,0.53,0.59
		c1.05-0.02,2.11,0.05,3.15-0.06c1.1-0.12,1.75-1.08,1.68-2.26c-0.06-1.02-0.77-1.65-1.96-1.71C96.78,62.2,96.35,62.22,95.92,62.21z
		"/>
	<path class="st2" d="M105.84,62.33c0,1.72-0.06,3.44,0.02,5.15c0.05,1.16-0.68,0.98-1.38,1c-0.72,0.03-1.28,0.04-1.27-0.99
		c0.05-3.51,0.05-7.03,0.01-10.54c-0.01-1,0.49-1.05,1.24-1.01c0.7,0.03,1.43-0.15,1.39,1C105.79,58.73,105.83,60.53,105.84,62.33
		C105.83,62.33,105.84,62.33,105.84,62.33z"/>
</g>
</svg>
