<?xml version="1.0" encoding="utf-8"?>
<!-- Generator: Adobe Illustrator 24.1.2, SVG Export Plug-In . SVG Version: 6.00 Build 0)  -->
<svg version="1.1" id="view" xmlns="http://www.w3.org/2000/svg" xmlns:xlink="http://www.w3.org/1999/xlink" x="0px" y="0px"
	 viewBox="0 0 64 64" style="enable-background:new 0 0 64 64;" xml:space="preserve">
<style type="text/css">
	.st0{fill:#CECECE;}
</style>
<path class="st0" d="M31.5,19C17.42,19,6,24.6,6,31.5C6,38.4,17.42,44,31.5,44S57,38.4,57,31.5C57,24.6,45.58,19,31.5,19z
	 M34.1,42.93c0.39-1.58,0.62-3.45,0.62-5.47c0-5.54-1.69-10.04-3.77-10.04c-2.09,0-3.77,4.5-3.77,10.04c0,2.02,0.22,3.89,0.61,5.47
	c-4.01-1.4-6.9-5.42-6.9-10.16c0-5.91,4.5-10.7,10.06-10.7c5.55,0,10.05,4.79,10.05,10.7C41,37.51,38.11,41.53,34.1,42.93z"/>
</svg>
