<?xml version="1.0" encoding="utf-8"?>
<!-- Generator: Adobe Illustrator 24.1.2, SVG Export Plug-In . SVG Version: 6.00 Build 0)  -->
<svg version="1.1" id="userdef" xmlns="http://www.w3.org/2000/svg" xmlns:xlink="http://www.w3.org/1999/xlink" x="0px" y="0px"
	 viewBox="0 0 16 16" style="enable-background:new 0 0 16 16;" xml:space="preserve">
<style type="text/css">
	.st0{fill:#CECECE;}
</style>
<g>
	<path class="st0" d="M13.6,14.2c-0.3,0.3-0.5,0.5-0.8,0.8c-0.2,0.2-0.4,0.4-0.6,0.6c-0.1,0.1-0.1,0.1-0.2,0.2
		c-0.1,0.1-0.1,0.1-0.2,0c0,0-0.1-0.1-0.1-0.1c-0.2-0.2-0.4-0.4-0.6-0.5c-0.1-0.1-0.1-0.1-0.2-0.2c-0.1-0.1-0.1-0.3,0-0.4
		c0.1-0.1,0.1-0.2,0.2-0.3c0.1-0.1,0.2-0.2,0.3-0.3c0,0,0,0,0.1-0.1c0,0,0,0,0,0c-0.2-0.2-0.4-0.4-0.6-0.6c-0.1-0.1-0.1,0-0.1,0
		c-0.1,0.1-0.2,0.2-0.3,0.3c-0.1,0.1-0.2,0.1-0.4,0c-0.3-0.2-0.5-0.5-0.8-0.8c-0.1-0.1-0.1-0.2,0-0.4c0.2-0.2,0.4-0.4,0.6-0.6
		c0.2-0.2,0.4-0.3,0.5-0.5c0,0,0,0,0.1-0.1c0,0,0,0,0-0.1c-1-1-2-2-3-3c0,0-0.1-0.1-0.1,0C6.9,8.2,6.5,8.4,6.1,8.5
		c-2.4,0.6-4.7-1.1-5-3.3c-0.3-2,0.8-3.9,2.7-4.6C6.1-0.3,8.7,1,9.2,3.4c0.2,1,0.1,2-0.4,3C8.8,6.6,8.8,6.7,9,6.9
		c1.7,1.7,3.3,3.3,5,5c0.4,0.4,0.8,0.8,1.2,1.2c0.1,0.1,0.1,0.1,0.2,0.2c0.2,0.2,0.2,0.3,0,0.5c0,0.1-0.1,0.1-0.1,0.2
		c-0.2,0.2-0.4,0.4-0.6,0.6c0,0,0,0,0,0c-0.2,0.2-0.4,0.2-0.6,0C13.9,14.5,13.8,14.4,13.6,14.2C13.7,14.2,13.7,14.2,13.6,14.2z
		 M2.7,4.4c0,1.4,1.1,2.5,2.5,2.5c1.4,0,2.5-1.1,2.5-2.5C7.7,3.1,6.6,2,5.2,2C3.8,2,2.7,3,2.7,4.4z"/>
</g>
</svg>
