<?xml version="1.0" encoding="utf-8"?>
<!-- Generator: Adobe Illustrator 24.1.2, SVG Export Plug-In . SVG Version: 6.00 Build 0)  -->
<svg version="1.1" id="userdef" xmlns="http://www.w3.org/2000/svg" xmlns:xlink="http://www.w3.org/1999/xlink" x="0px" y="0px"
	 viewBox="0 0 16 16" style="enable-background:new 0 0 16 16;" xml:space="preserve">
<style type="text/css">
	.st0{fill:#CECECE;}
</style>
<g>
	<path class="st0" d="M14.1,12.3h1.7c-0.5,1.1-1.4,2-2.5,2.6c-1.3,0.7-2.9,1.1-4.7,1.1C6.9,16,5.3,15.7,4,15
		c-1.3-0.6-2.3-1.5-2.9-2.7c-0.6-1.2-1-2.5-1-3.9c0-1.5,0.4-2.9,1.1-4.3c0.7-1.3,1.7-2.3,3-3s2.7-1,4.3-1c1.4,0,2.6,0.3,3.6,0.8
		c1.1,0.5,1.9,1.3,2.4,2.3s0.8,2,0.8,3.2c0,1.4-0.4,2.6-1.3,3.8c-1.1,1.4-2.4,2.1-4.1,2.1c-0.5,0-0.8-0.1-1-0.2
		c-0.2-0.2-0.4-0.4-0.5-0.7c-0.6,0.6-1.4,0.9-2.2,0.9c-0.9,0-1.6-0.3-2.2-0.9C3.5,10.9,3.2,10.1,3.2,9c0-1.3,0.4-2.4,1.1-3.5
		c0.9-1.3,2-1.9,3.3-1.9c1,0,1.7,0.4,2.1,1.1L10,3.8h2.1l-1.2,5.8c-0.1,0.4-0.1,0.6-0.1,0.7c0,0.1,0,0.2,0.1,0.3
		c0.1,0.1,0.1,0.1,0.2,0.1c0.3,0,0.6-0.2,1-0.5c0.6-0.4,1-1,1.3-1.7C13.8,8,14,7.2,14,6.5c0-1.3-0.5-2.5-1.4-3.3
		c-1-0.9-2.3-1.3-4-1.3C7,1.8,5.7,2.1,4.7,2.7c-1,0.6-1.8,1.4-2.3,2.5S1.6,7.5,1.6,8.6c0,1.1,0.3,2.2,0.9,3.1s1.4,1.6,2.4,2.1
		c1,0.4,2.2,0.6,3.6,0.6c1.3,0,2.4-0.2,3.3-0.5C12.8,13.6,13.5,13,14.1,12.3z M5.3,8.9c0,0.7,0.1,1.2,0.4,1.5C6,10.8,6.4,11,6.8,11
		c0.3,0,0.6-0.1,0.9-0.2c0.2-0.1,0.4-0.3,0.6-0.5C8.5,9.9,8.8,9.4,9,8.8C9.2,8.1,9.3,7.5,9.3,7c0-0.6-0.1-1.1-0.4-1.4
		C8.6,5.3,8.2,5.1,7.8,5.1c-0.5,0-0.9,0.2-1.3,0.5C6.1,6,5.8,6.5,5.6,7.2C5.4,7.8,5.3,8.4,5.3,8.9z"/>
</g>
</svg>
