<?xml version="1.0" encoding="utf-8"?>
<!-- Generator: Adobe Illustrator 24.1.2, SVG Export Plug-In . SVG Version: 6.00 Build 0)  -->
<svg version="1.1" id="userdef" xmlns="http://www.w3.org/2000/svg" xmlns:xlink="http://www.w3.org/1999/xlink" x="0px" y="0px"
	 viewBox="0 0 16 16" style="enable-background:new 0 0 16 16;" xml:space="preserve">
<style type="text/css">
	.st0{fill:#CECECE;}
</style>
<g>
	<path class="st0" d="M12.4,6.6C13.6,6.8,14,7.3,14,8.5c0,1.9,0,3.8,0,5.6c0,1.1-0.6,1.7-1.7,1.7c-2.6,0-5.2,0-7.8,0
		c-1.1,0-1.7-0.6-1.7-1.7c0-1.8,0-3.6,0-5.5c0-1.4,0.3-1.8,1.7-2c0-0.7,0-1.4,0-2.2c0-0.9,0.2-1.7,0.7-2.5c1-1.4,2.8-2,4.4-1.5
		c1.7,0.5,2.8,2,2.8,3.8C12.4,5.1,12.4,5.9,12.4,6.6z M6,6.6c1.6,0,3.2,0,4.8,0c0-1,0.1-1.9,0-2.9c-0.1-1.1-1.3-2-2.4-1.9
		c-1.2,0-2.2,0.9-2.4,2C5.9,4.7,6,5.7,6,6.6z M9.9,10.7c0-0.8-0.4-1.4-1.1-1.5C8.2,9,7.5,9.2,7.2,9.8c-0.4,0.6-0.4,1.3,0.1,1.7
		c0.5,0.4,0.5,0.8,0.5,1.3c0,0.2,0,0.4,0,0.5c0,0.5,0.2,0.8,0.6,0.8c0.4,0,0.6-0.3,0.7-0.8c0-0.4,0-0.7,0-1.1c0-0.2,0.1-0.4,0.3-0.5
		C9.7,11.5,9.9,11.1,9.9,10.7z"/>
</g>
</svg>
