<?xml version="1.0" encoding="utf-8"?>
<!-- Generator: Adobe Illustrator 24.1.2, SVG Export Plug-In . SVG Version: 6.00 Build 0)  -->
<svg version="1.1" id="userdef" xmlns="http://www.w3.org/2000/svg" xmlns:xlink="http://www.w3.org/1999/xlink" x="0px" y="0px"
	 viewBox="0 0 16 16" style="enable-background:new 0 0 16 16;" xml:space="preserve">
<style type="text/css">
	.st0{fill:#CECECE;}
	.st1{fill:#212121;}
</style>
<g>
	<path class="st0" d="M0,2.8c0.1-0.1,0.1-0.3,0.1-0.4c0.1-0.4,0.3-0.7,0.5-1C1,1,1.4,0.7,1.8,0.3C2.2,0,2.7,0,3,0.3
		c0,0,0.1,0.1,0.1,0.1c1.1,1.1,2.1,2.1,3.2,3.2c0.3,0.3,0.5,0.7,0.3,1.1C6.6,4.9,6.5,5,6.4,5.2C6,5.6,5.6,6,5.2,6.4
		C4.6,6.9,4.5,7.6,4.7,8.3C4.9,9,5.4,9.6,5.9,10.2c0.5,0.5,1.1,0.9,1.8,1.1c0.5,0.2,1.1,0.2,1.6-0.2c0.1-0.1,0.2-0.2,0.3-0.3
		c0.4-0.4,0.9-0.9,1.3-1.3c0.5-0.5,1-0.5,1.5,0c1.1,1.1,2.1,2.1,3.2,3.2c0.3,0.3,0.5,0.7,0.3,1.1c0,0.1-0.1,0.3-0.2,0.4
		c-0.4,0.4-0.8,0.8-1.3,1.2c-0.5,0.4-1.2,0.5-1.9,0.5c-0.8,0-1.5-0.2-2.2-0.5c-1.8-0.7-3.4-1.8-4.8-3.1C4,11,2.7,9.5,1.6,7.8
		C0.9,6.7,0.4,5.6,0.1,4.3c0-0.2,0-0.4-0.1-0.6c0-0.1,0-0.1,0-0.2c0.1-0.2,0-0.4,0-0.5C0,3,0,2.9,0,2.8z"/>
	<path class="st1" d="M0,3c0,0.2,0.1,0.4,0,0.5C0,3.4,0,3.2,0,3z"/>
</g>
</svg>
