<?xml version="1.0" encoding="utf-8"?>
<!-- Generator: Adobe Illustrator 24.1.2, SVG Export Plug-In . SVG Version: 6.00 Build 0)  -->
<svg version="1.1" id="userdef" xmlns="http://www.w3.org/2000/svg" xmlns:xlink="http://www.w3.org/1999/xlink" x="0px" y="0px"
	 viewBox="0 0 16 16" style="enable-background:new 0 0 16 16;" xml:space="preserve">
<style type="text/css">
	.st0{fill:#CECECE;}
</style>
<g>
	<path class="st0" d="M0,14.7c0-1.1,0-2.1,0-3.2c0.4,0,0.7,0,1.1,0c1.2,0,2.1-0.9,2.1-2c0-1-0.7-1.9-1.7-2.1c-0.5-0.1-1,0-1.5,0
		c0-1.1,0-2.1,0-3.2c0.1-0.1,0.1-0.3,0.1-0.4c0.3-0.6,0.8-0.9,1.4-0.9c0.9,0,1.9,0,2.8,0c0.1,0,0.2,0,0.2-0.2c0-0.3,0-0.6,0-0.9
		c0-0.9,0.5-1.6,1.3-1.8c0.1,0,0.2,0,0.3-0.1c0.2,0,0.4,0,0.5,0c0,0,0,0,0,0c0.8,0.1,1.5,0.7,1.6,1.5c0.1,0.4,0,0.9,0,1.3
		c0,0.2,0,0.2,0.2,0.2c0.9,0,1.8,0,2.8,0c0.3,0,0.5,0,0.7,0.2c0.6,0.3,0.9,0.8,0.9,1.4c0,0.9,0,1.9,0,2.8c0,0.1,0,0.2,0.2,0.2
		c0.4,0,0.7,0,1.1,0c0.7,0,1.3,0.4,1.6,1.1c0.1,0.2,0.1,0.4,0.2,0.6c0,0.2,0,0.4,0,0.6c0,0,0,0,0,0.1c-0.2,0.9-0.8,1.5-1.7,1.5
		c-0.4,0-0.7,0-1.1,0c-0.1,0-0.2,0-0.2,0.2c0,0.9,0,1.9,0,2.8c0,0.5-0.2,1-0.6,1.3c-0.2,0.2-0.4,0.2-0.7,0.3c-1,0-2.1,0-3.1,0
		c0-0.5,0-1,0-1.4c-0.2-1.5-2-2.3-3.3-1.3c-0.6,0.4-0.8,1-0.8,1.7c0,0.4,0,0.7,0,1.1c-1.1,0-2.1,0-3.2,0c0,0-0.1,0-0.1,0
		C0.6,15.8,0.2,15.4,0,14.7C0,14.8,0.1,14.8,0,14.7z"/>
</g>
</svg>
