<svg width="64.000000" height="64.000000" viewBox="0 0 64 64" fill="none" xmlns="http://www.w3.org/2000/svg" xmlns:xlink="http://www.w3.org/1999/xlink">
	<desc>
			Created with Pixso.
	</desc>
	<defs>
		<clipPath id="clip88_737">
			<rect id="delete" width="64.000000" height="64.000000" fill="white" fill-opacity="0"/>
		</clipPath>
	</defs>
	<g clip-path="url(#clip88_737)">
		<path id="path" d="M51 51.1L12.7 12.9C12 12 10.7 12 9.79 12.7C9.69 12.7 9.69 12.8 9.59 12.9C8.89 13.5 8.69 14.7 9.29 15.4L16.5 22.7L19.4 51.7C19.5 52.8 20.4 53.6 21.5 53.6L43.2 53.6C44.3 53.6 45.2 52.8 45.3 51.7L45.3 51.5L47.8 54C48.5 54.8 49.8 54.9 50.7 54.2C50.8 54.2 50.8 54.1 50.9 54C51.7 53.3 51.8 52 51.1 51.1C51 51.2 51 51.1 51 51.1Z" fill="#A5A5A5" fill-opacity="1.000000" fill-rule="nonzero"/>
		<path id="path" d="M52.6 15.2C52.6 15.8 52.4 16.5 52 16.9C51.6 17.29 51 17.5 50.5 17.5L23.8 17.5L19.6 13.3L25.1 13.3L25.1 11.2C25.1 10 26.1 9.1 27.2 9.1L37.8 9.1C39 9 40 10 40 11.1L40 13.2L50.5 13.2C51.5 13.3 52.5 14.1 52.6 15.2Z" fill="#A5A5A5" fill-opacity="1.000000" fill-rule="nonzero"/>
		<path id="path" d="M46.1 21.8L27.8 21.8L46.6 40.3L48.2 24.1C48.3 22.9 47.5 21.9 46.3 21.8C46.3 21.8 46.2 21.8 46.1 21.8Z" fill="#A5A5A5" fill-opacity="1.000000" fill-rule="nonzero"/>
	</g>
</svg>
