<svg width="62.213867" height="64.000000" viewBox="0 0 62.2139 64" fill="none" xmlns="http://www.w3.org/2000/svg" xmlns:xlink="http://www.w3.org/1999/xlink">
	<desc>
			Created with Pixso.
	</desc>
	<defs/>
	<rect id="rect" width="62.213848" height="64.000000" fill="#000000" fill-opacity="0"/>
	<path id="path" d="M53.65 56.79L6.99 8.79C6.51 8.25 5.9 7.97 5.18 7.97C4.46 7.97 3.85 8.25 3.36 8.79C2.91 9.2 2.64 9.7 2.57 10.32C2.5 10.93 2.63 11.49 2.98 12L11.79 21.2L15.29 57.59C15.36 58.28 15.64 58.85 16.13 59.31C16.63 59.77 17.21 60 17.88 60L44.32 60C44.99 60 45.57 59.77 46.07 59.31C46.57 58.85 46.85 58.28 46.91 57.59L46.91 57.33L50.03 60.53C50.51 61.08 51.12 61.35 51.84 61.35C52.56 61.35 53.17 61.08 53.65 60.53C54.19 60.03 54.45 59.4 54.45 58.66C54.45 57.92 54.19 57.3 53.65 56.79Z" fill="#FF7E94" fill-opacity="1.000000" fill-rule="nonzero"/>
	<path id="path" d="M55.73 11.73C55.75 12.55 55.49 13.26 54.95 13.86C54.45 14.38 53.85 14.65 53.14 14.66L20.47 14.66L15.29 9.33L22.03 9.33L22.03 6.66C22.03 5.93 22.28 5.3 22.79 4.78C23.29 4.26 23.91 4 24.62 4L37.58 4C38.3 4 38.91 4.26 39.42 4.78C39.92 5.3 40.17 5.93 40.17 6.66L40.17 9.33L53.01 9.33C53.69 9.32 54.29 9.55 54.81 10C55.32 10.46 55.63 11.03 55.73 11.73Z" fill="#FF7E94" fill-opacity="1.000000" fill-rule="nonzero"/>
	<path id="path" d="M47.69 20L25.4 20L48.34 43.2L50.28 22.93C50.36 22.14 50.14 21.45 49.62 20.87C49.11 20.28 48.46 19.99 47.69 20Z" fill="#FF7E94" fill-opacity="1.000000" fill-rule="nonzero"/>
</svg>
