<svg width="64.000000" height="64.000000" viewBox="0 0 64 64" fill="none" xmlns="http://www.w3.org/2000/svg" xmlns:xlink="http://www.w3.org/1999/xlink">
	<desc>
			Created with Pixso.
	</desc>
	<defs>
		<clipPath id="clip88_758">
			<rect id="edit" width="64.000000" height="64.000000" fill="white" fill-opacity="0"/>
		</clipPath>
	</defs>
	<g clip-path="url(#clip88_758)">
		<path id="path" d="M54.6 15.5L48.5 9.4C47.2 7.79 43.4 6.5 40.4 9.4L12.1 37.4C11.6 37.9 11.5 38.4 11.5 38.9L8.9 52.7C8.4 54.2 10.1 55.3 11.2 55.1L25.5 52.3C26 52.3 26.2 52.1 26.5 51.8L54.7 23.6C56.9 21.5 56.9 17.7 54.6 15.5ZM43.2 12C43.8 11.3 45 11.3 45.7 12L47.4 13.6L19.29 41.8L16.4 38.8L43.2 12ZM14.7 42.9L20.9 49.1L13.1 50.6L14.7 42.9ZM51.9 20.8L25 47.6L22.1 44.7L50.3 16.5L51.9 18.1C52.8 19 52.4 20.29 51.9 20.8Z" fill="#A5A5A5" fill-opacity="1.000000" fill-rule="nonzero"/>
	</g>
</svg>
