<svg width="82.950195" height="75.549988" viewBox="0 0 82.9502 75.55" fill="none" xmlns="http://www.w3.org/2000/svg" xmlns:xlink="http://www.w3.org/1999/xlink">
	<desc>
			Created with Pixso.
	</desc>
	<defs/>
	<path id="Форма 41" d="M55.45 0L27.5 0C22.65 0 18.2 2.59 15.75 6.79L1.79 31C-0.6 35.2 -0.6 40.34 1.79 44.55L15.75 68.75C18.15 72.94 22.65 75.55 27.5 75.55L55.45 75.55C60.29 75.55 64.75 72.94 67.2 68.75L81.15 44.55C83.54 40.34 83.54 35.2 81.15 31L67.2 6.79C64.79 2.59 60.29 0 55.45 0Z" fill="#FF5C76" fill-opacity="1.000000" fill-rule="nonzero"/>
	<path id="Форма 41" d="M41.59 17.54C43.7 17.54 46.7 17.9 46.79 20.25C46.79 21 46.7 22.1 46.54 22.95C45.95 26.9 44.14 36.59 43.09 44.35L40.14 44.35C39.29 37.2 37.5 27.4 36.75 23.15C36.54 22.4 36.29 21 36.29 20.25C36.29 18.1 39.34 17.54 41.59 17.54ZM41.64 59.2C38.75 59.2 36.64 57.1 36.64 54C36.64 51 38.75 48.9 41.64 48.9C44.59 48.9 46.7 51 46.7 54C46.7 57.1 44.59 59.2 41.64 59.2Z" fill="#FFFFFF" fill-opacity="1.000000" fill-rule="nonzero"/>
</svg>
