<svg width="207.762665" height="179.459961" viewBox="0 0 207.763 179.46" fill="none" xmlns="http://www.w3.org/2000/svg" xmlns:xlink="http://www.w3.org/1999/xlink">
	<desc>
			Created with Pixso.
	</desc>
	<defs/>
	<path id="Форма 22" d="M1.01 156.65L66.9 37.65C69.91 32.17 77.71 31.82 81.25 37.12L157.42 153.64C160.96 159.12 157.07 166.37 150.51 166.55L8.45 169.02C2.07 169.2 -2 162.31 1.01 156.65Z" fill="#7A00F5" fill-opacity="1.000000" fill-rule="nonzero"/>
	<path id="Форма 22" d="M80.72 169.73L133.86 73.72C136.34 69.48 142.37 69.13 145.2 73.37L206.67 167.26C209.5 171.5 206.49 177.33 201.35 177.33L86.74 179.46C81.61 179.46 78.24 174.15 80.72 169.73Z" fill="#8551E9" fill-opacity="1.000000" fill-rule="nonzero"/>
	<path id="Форма 22" d="M153.7 21.92C153.7 9.81 163.54 0 175.67 0C187.8 0 197.63 9.81 197.63 21.92C197.63 34.03 187.8 43.84 175.67 43.84C163.54 43.84 153.7 34.03 153.7 21.92Z" fill="#FF7E94" fill-opacity="1.000000" fill-rule="evenodd"/>
</svg>
