<?xml version="1.0" encoding="utf-8"?>
<!-- Generator: Adobe Illustrator 24.1.2, SVG Export Plug-In . SVG Version: 6.00 Build 0)  -->
<svg version="1.1" id="Слой_1" xmlns="http://www.w3.org/2000/svg" xmlns:xlink="http://www.w3.org/1999/xlink" x="0px" y="0px"
	 viewBox="0 0 102.48 78" style="enable-background:new 0 0 102.48 78;" xml:space="preserve">
<style type="text/css">
	.st0{fill:#7339C4;}
	.st1{fill:#743BC4;}
	.st2{fill:#743CC5;}
	.st3{fill:#7841C5;}
</style>
<g>
	<path class="st0" d="M69.19,77.98c-0.28-0.38-0.69-0.42-1.13-0.49c-3.37-0.5-6.82-2.72-7.51-6.38c-0.59-3.18-0.71-6.44,1.78-9.06
		c1.78-1.87,4.03-2.85,6.59-3.21c2.84-0.39,5.65-0.17,8.48,0.23c2.49,0.36,5.78,3.23,6.67,5.62c0.98,2.62,0.89,5.22-0.15,7.64
		c-1.27,2.98-3.81,4.62-7.02,5.15c-0.47,0.08-0.93,0.08-1.25,0.49C73.5,77.98,71.35,77.98,69.19,77.98z M74.46,74.04
		c1.2-0.02,2.38-0.37,3.48-0.9c3.44-1.66,3.31-7.97,0.22-9.54c-0.8-0.41-1.64-0.56-2.43-0.9c-1.19-0.51-1.27-0.45-1.27,0.82
		C74.46,67.04,74.46,70.56,74.46,74.04z M70.39,73.99c0-3.16,0-6.33,0-9.51c0-2.02,0.01-1.98-1.92-1.58
		c-2.17,0.45-3.5,1.74-3.93,3.85c-0.41,2.03-0.23,4.68,2.09,6.13C67.74,73.58,68.97,74.04,70.39,73.99z"/>
	<path class="st0" d="M45.26,77.98c0-6.17,0.02-12.33-0.02-18.5c-0.01-0.9,0.23-1.13,1.12-1.12c3.2,0.03,3.2-0.01,3.2,3.19
		c0,1.43-0.02,2.86-0.03,4.29c0,0.11-0.06,0.22-0.1,0.33c0.07,0.03,0.14,0.07,0.22,0.09c2.17,0.5,3.38-0.51,4.2-2.46
		c0.65-1.52,1.61-2.91,2.4-4.38c0.37-0.69,0.83-1.1,1.67-1.04c0.79,0.05,1.59,0.04,2.39,0.01c1.05-0.04,0.9,0.66,0.61,1.16
		c-1.52,2.63-3.13,5.19-4.64,7.83c-0.41,0.71,0.4,1.27,0.7,1.82c1.45,2.65,3.02,5.24,4.56,7.84c0.21,0.35,0.23,0.64,0,0.96
		c-1.36,0-2.71,0-4.07,0c-1.07-1.9-2.25-3.75-3.17-5.71c-0.79-1.68-1.95-2.25-3.69-1.95c-0.38,0.07-0.78,0.01-1.04,0.01
		c0,1.96,0.01,3.82-0.01,5.68c-0.01,0.66,0.17,1.35-0.23,1.97C47.97,77.98,46.61,77.98,45.26,77.98z"/>
	<path class="st0" d="M32.33,77.98c-0.9-0.65-1.99-0.96-2.88-1.67c-2.27-1.82-3.6-4.11-3.83-7.03c-0.33-4.19,1.78-7.78,5.58-9.73
		c1.25-0.64,2.64-0.99,3.89-1.06c2.61-0.15,5.07,0.73,7.02,2.62c0.58,0.56,0.27,1.19-0.07,1.73c-0.45,0.72-0.93,1.41-1.23,2.21
		c-0.5-0.09-0.72-0.46-0.98-0.74c-3.1-3.34-8.96-1.75-9.98,2.48c-0.88,3.65,0.97,6.73,4.76,7.4c2.26,0.4,4.12-0.23,5.5-2.01
		c0.49-0.63,0.76-0.43,1.07-0.02c0.62,0.83,0.89,1.88,1.61,2.66c0.13,0.14-0.04,0.37-0.23,0.57c-0.92,0.93-2,1.6-3.18,2.1
		c-0.27,0.12-0.5,0.21-0.6,0.49C36.64,77.98,34.49,77.98,32.33,77.98z"/>
	<path class="st0" d="M88.34,77.98c-0.49-0.93-0.94-1.87-1.48-2.77c-0.19-0.31-0.27-0.62-0.13-0.88c0.15-0.27,0.49-0.16,0.76-0.11
		c1.37,0.25,2.71-0.46,3.29-1.64c0.17-0.35-0.02-0.54-0.12-0.73c-1.33-2.48-2.72-4.92-4.01-7.42c-0.97-1.88-2.11-3.69-2.9-5.81
		c1.29,0,2.44-0.02,3.59,0.01c0.47,0.01,0.77,0.17,1.05,0.71c1.45,2.85,3.01,5.64,4.53,8.45c0.07,0.13,0.2,0.23,0.3,0.34
		c1.78-2.69,3.08-5.61,4.62-8.4c0.43-0.77,0.94-1.19,1.87-1.12c0.91,0.07,1.83,0.01,2.75,0.01c0,0.4,0,0.8,0,1.2
		c-0.85,0.5-0.95,1.47-1.38,2.23c-1.88,3.36-3.71,6.75-5.57,10.11c-1.02,1.84-1.95,3.74-3.79,4.99c-0.55,0.37-1.39,0.07-1.71,0.84
		C89.46,77.98,88.9,77.98,88.34,77.98z"/>
	<path class="st1" d="M31.45,7.96c1.09,0.41,1.87,1.15,2.66,1.82c5.44,4.59,9.51,10.14,11.83,16.91
		c3.75,10.91-1.44,21.06-9.99,26.53c-1.7,1.09-3.54,1.97-5.3,2.98c-3.78,2.18-6.58,5.18-7.54,9.54c-0.41,1.87-0.67,3.83,0.29,5.69
		c0.09,0.18,0.08,0.51-0.03,0.68c-0.16,0.24-0.39,0.06-0.61-0.05c-3.39-1.8-5.84-4.35-6.69-8.22c-0.71-3.23,0.07-6.22,1.4-9.13
		c1.56-3.4,3.98-6.12,6.71-8.61c2.42-2.2,4.82-4.42,6.53-7.26c2.81-4.66,3.97-9.76,3.92-15.15c-0.04-4.65-0.95-9.15-2.5-13.53
		C31.89,9.47,31.33,8.87,31.45,7.96z"/>
	<path class="st2" d="M14.64,0.32c0.59,0.09,0.4,0.41,0.27,0.7c-0.97,2.1-1.65,4.3-2.14,6.55c-0.87,3.95-1.25,7.91-0.81,11.96
		c0.76,7.05,3.23,13.4,7.48,19.07c0.98,1.31,2.05,2.55,3.24,3.67c0.58,0.54,0.59,0.86-0.13,1.34c-1.84,1.22-1.82,1.27-3.71-0.11
		C10.88,37.66,5.95,29.91,4,20.23c-0.21-1.05-0.35-2.11-0.56-3.16c-0.33-1.65,0.04-3.15,0.89-4.66C6.9,7.87,10.2,3.99,14.2,0.67
		C14.35,0.55,14.5,0.43,14.64,0.32z"/>
	<path class="st2" d="M1.56,20.12c0.39,2.64,1.04,5.07,1.96,7.43c2.9,7.46,7.9,13.07,14.85,16.98c0.21,0.12,0.43,0.21,0.62,0.35
		c0.33,0.25,1.12,0.25,0.81,0.9c-0.29,0.62-0.86,1.02-1.68,0.78c-2.09-0.63-4.18-1.27-6.14-2.27C7.5,42,3.86,38.75,0.96,34.64
		c-0.48-0.67-0.75-1.35-0.72-2.2c0.13-3.14-0.27-6.3,0.27-9.42C0.67,22.08,0.5,20.95,1.56,20.12z"/>
	<path class="st3" d="M15.06,48.77c-4.15-0.17-8.03-1.13-11.59-3.26c-0.38-0.23-0.7-0.44-0.89-0.9c-0.74-1.84-1.43-3.69-1.82-5.64
		c-0.05-0.27-0.44-0.63-0.01-0.83c0.33-0.15,0.53,0.22,0.74,0.46c2.55,2.91,5.57,5.16,9.11,6.76c2.07,0.94,4.23,1.54,6.45,2
		c0.32,0.07,0.83-0.12,0.84,0.41c0.01,0.48-0.39,0.81-0.84,0.87C16.39,48.75,15.7,48.74,15.06,48.77z"/>
	<path class="st3" d="M4.35,47.89c1.17,0.45,2.31,1.01,3.51,1.34c2.43,0.65,4.88,1.09,7.41,0.4c0.38-0.1,1.06-0.42,1.23,0.19
		c0.15,0.54-0.42,0.88-0.9,1.11c-2.74,1.3-5.64,1.15-8.54,0.9c-0.34-0.03-0.69-0.15-0.91-0.5c-0.66-1.07-1.34-2.13-2.02-3.2
		C4.2,48.04,4.28,47.97,4.35,47.89z"/>
	<path class="st3" d="M9.77,53.27c1.7,0.01,3.28-0.46,4.8-1.17c0.22-0.1,0.45-0.47,0.71-0.12c0.17,0.23,0.07,0.54-0.1,0.78
		c-0.16,0.22-0.32,0.46-0.52,0.64c-1.14,1.05-2.53,1.55-4.04,1.85c-1.2,0.24-1.95-0.31-2.57-1.22c-0.13-0.19-0.34-0.39-0.23-0.63
		c0.12-0.27,0.4-0.19,0.63-0.18C8.9,53.23,9.33,53.25,9.77,53.27z"/>
</g>
</svg>
