<svg width="16.799805" height="23.361328" viewBox="0 0 16.7998 23.3613" fill="none" xmlns="http://www.w3.org/2000/svg" xmlns:xlink="http://www.w3.org/1999/xlink">
	<desc>
			Created with Pixso.
	</desc>
	<defs/>
	<path id="Форма 20" d="M14.39 9.56C16.2 9.86 16.79 10.61 16.79 12.41C16.79 15.26 16.79 18.11 16.79 20.81C16.79 22.46 15.89 23.36 14.25 23.36C10.35 23.36 6.45 23.36 2.54 23.36C0.89 23.36 0 22.46 0 20.81C0 18.11 0 15.41 0 12.56C0 10.46 0.45 9.86 2.54 9.56C2.54 8.51 2.54 7.46 2.54 6.26C2.54 4.91 2.85 3.71 3.6 2.51C5.1 0.41 7.79 -0.49 10.19 0.26C12.75 1.01 14.39 3.26 14.39 5.96C14.39 7.31 14.39 8.51 14.39 9.56ZM4.79 9.56C7.2 9.56 9.6 9.56 12 9.56C12 8.06 12.14 6.71 12 5.21C11.85 3.56 10.04 2.21 8.39 2.36C6.6 2.36 5.1 3.71 4.79 5.36C4.64 6.71 4.79 8.21 4.79 9.56ZM10.64 15.71C10.64 14.51 10.04 13.61 9 13.46C8.1 13.16 7.04 13.46 6.6 14.36C6 15.26 6 16.31 6.75 16.91C7.5 17.51 7.5 18.11 7.5 18.86C7.5 19.16 7.5 19.46 7.5 19.61C7.5 20.36 7.79 20.81 8.39 20.81C9 20.81 9.29 20.36 9.45 19.61C9.45 19.01 9.45 18.56 9.45 17.96C9.45 17.66 9.6 17.36 9.89 17.21C10.35 16.91 10.64 16.31 10.64 15.71Z" fill="#FF4242" fill-opacity="1.000000" fill-rule="nonzero"/>
</svg>
