<?xml version="1.0" encoding="utf-8"?>
<!-- Generator: Adobe Illustrator 24.1.2, SVG Export Plug-In . SVG Version: 6.00 Build 0)  -->
<svg version="1.1" id="Слой_1" xmlns="http://www.w3.org/2000/svg" xmlns:xlink="http://www.w3.org/1999/xlink" x="0px" y="0px"
	 viewBox="0 0 213.12 80.84" style="enable-background:new 0 0 213.12 80.84;" xml:space="preserve">
<style type="text/css">
	.st0{fill:#7339C4;}
	.st1{fill:#CA6349;}
</style>
<g>
	<path class="st0" d="M213.1,80.54c-1,0-2-0.04-2.99,0.01c-0.71,0.04-0.86-0.24-0.85-0.89c0.03-2.43,0.01-4.86-0.06-7.31
		c-0.76,2.3-2.14,4.34-2.81,6.67c-0.28,0.96-0.68,1.63-1.95,1.56c-2.2-0.13-2.15-0.05-3.09-2.58c-0.72-1.92-1.6-3.78-2.61-5.63
		c0,2.39-0.03,4.79,0.02,7.18c0.01,0.76-0.18,1.01-0.98,1.01c-3.11,0.01-3.11,0.04-3.11-3.06c0-3.74,0.03-7.49-0.02-11.23
		c-0.01-0.85,0.23-1.11,1.07-1.05c0.91,0.07,1.86,0.14,2.75-0.01c1.47-0.25,2.06,0.53,2.43,1.72c0.85,2.74,2.12,5.32,3.2,8.21
		c1.23-3.09,2.4-5.98,3.51-8.89c0.28-0.72,0.61-1.08,1.45-1.04c1.35,0.07,2.71,0.02,4.07,0.02C213.1,70.35,213.1,75.44,213.1,80.54z
		"/>
	<path class="st0" d="M182.42,80.78c-2.67-0.98-4.77-2.56-5.76-5.37c-1.6-4.53,1.43-9.73,6.15-10.45c3.3-0.5,6.13,0.07,8.5,2.55
		c1.97,2.07,2.38,5.91,1.37,8.38c-1.04,2.54-3.08,3.88-5.47,4.88C185.61,80.78,184.02,80.78,182.42,80.78z M184.66,76.96
		c2.84-0.25,4.15-1.5,4.17-4.05c0.03-2.77-1.46-4.02-4.12-4.27c-2.08-0.2-3.97,1.77-3.98,3.89
		C180.73,75.2,182.26,76.94,184.66,76.96z"/>
	<path class="st0" d="M70.25,80.78c-0.87-0.57-1.84-0.93-2.7-1.54c-2.51-1.79-3.48-4.32-3.18-7.15c0.41-3.79,2.48-6.37,6.48-7.09
		c3.62-0.65,6.79,0.04,8.97,3.17c3.01,4.31,1.42,10.41-4.19,12.37c-0.15,0.05-0.31,0.06-0.36,0.24
		C73.6,80.78,71.93,80.78,70.25,80.78z M68.81,72.77c0,2.46,1.59,4.19,3.91,4.18c2.5-0.01,4.1-1.75,4.22-4.12
		c0.11-2.19-1.97-4.32-4.17-4.2C70.67,68.75,68.58,70.07,68.81,72.77z"/>
	<path class="st0" d="M151.02,80.78c-1.13-0.73-2.35-1.3-3.36-2.24c-2.81-2.64-2.76-8.51-0.05-11.33c2.65-2.74,7.6-3.16,10.35-1.23
		c1.81,1.27,2.9,3.04,3.13,5.28c0.08,0.81,0.63,1.83,0.1,2.38c-0.57,0.58-1.66,0.19-2.52,0.2c-2.75,0.03-5.5,0.03-8.26,0
		c-0.8-0.01-0.96,0.18-0.61,0.94c1.26,2.75,4.48,3.42,6.55,1.24c0.73-0.77,1.35-0.78,2.15-0.34c0.34,0.19,0.67,0.39,1.01,0.58
		c1.32,0.73,1.31,0.72,0.24,1.93c-1.03,1.16-2.3,1.96-3.69,2.59C154.38,80.78,152.7,80.78,151.02,80.78z M149.94,70.5
		c1.25,0,2.4,0.02,3.55-0.01c1.16-0.03,2.33,0.12,3.5-0.09c-0.57-1.76-1.73-2.35-3.79-2.29C151.46,68.17,150.54,68.83,149.94,70.5z"
		/>
	<path class="st0" d="M118.18,80.78c-1.87-0.81-3.55-1.93-4.53-3.73c-1.62-2.95-1.63-5.99,0.22-8.85c1.52-2.34,3.79-3.32,6.59-3.46
		c4.73-0.24,8.18,4.01,7.81,8.38c-0.07,0.82-0.48,0.74-1,0.74c-3.51,0-7.03,0-10.61,0c0.17,1.56,0.91,2.64,2.39,3.1
		c1.69,0.53,3.34,0.45,4.53-1.01c0.59-0.73,1.06-0.77,1.75-0.33c0.13,0.08,0.28,0.14,0.42,0.21c2.25,1.11,2.26,1.35,0.36,3.05
		c-0.93,0.84-2,1.41-3.14,1.91C121.38,80.78,119.78,80.78,118.18,80.78z M124.04,70.46c-0.3-1.51-1.37-2.17-2.73-2.32
		c-1.86-0.21-3.53,0.2-4.41,2.32C119.28,70.46,121.64,70.46,124.04,70.46z"/>
	<path class="st0" d="M129.21,80.78c-0.62-0.33-0.47-0.91-0.48-1.43c-0.01-0.8,0.1-1.61-0.05-2.38c-0.14-0.71,0.23-0.86,0.66-0.69
		c1.5,0.6,1.65-0.56,1.75-1.42c0.26-2.19,0.37-4.39,0.51-6.59c0.05-0.82,0.38-1.62,0.25-2.46c-0.08-0.52,0.27-0.56,0.67-0.56
		c3.55,0.01,7.11,0.01,10.66-0.01c0.56,0,0.65,0.25,0.65,0.72c-0.01,4.58-0.01,9.16,0,13.74c0,0.61-0.26,0.88-0.86,0.85
		c-0.04,0-0.08,0-0.12,0c-3.33,0.16-3.33,0.16-3.33-3.17c0-2.78,0-5.57,0-8.3c-1.02,0-1.99,0.01-2.96,0
		c-0.51-0.01-0.78,0.03-0.94,0.7c-0.37,1.6-0.09,3.21-0.37,4.82c-0.26,1.52-0.51,2.99-1.27,4.34c-0.57,1.02-1.68,1.33-2.62,1.85
		C130.65,80.78,129.93,80.78,129.21,80.78z"/>
	<path class="st0" d="M88.46,80.78c-1.76-0.85-3.54-1.68-4.56-3.48c-1.64-2.88-1.73-5.86-0.07-8.7c1.46-2.5,3.78-3.77,6.74-3.84
		c2.92-0.07,5.3,0.84,6.95,3.38c0.35,0.55,0.28,0.73-0.25,0.95c-0.36,0.15-0.71,0.33-1.05,0.53c-0.6,0.36-1.16,0.96-1.8,1.05
		c-0.66,0.09-0.9-0.84-1.4-1.26c-1.55-1.27-5.18-1.03-5.84,2.21c-0.35,1.7-0.2,3.18,1.18,4.39c1.18,1.04,2.52,1.15,3.96,0.68
		c0.79-0.26,1.33-0.88,1.8-1.5c0.27-0.36,0.43-0.49,0.83-0.26c0.77,0.44,1.55,0.88,2.35,1.29c0.56,0.28,0.63,0.57,0.27,1.11
		c-1.07,1.62-2.6,2.64-4.31,3.45C91.66,80.78,90.06,80.78,88.46,80.78z"/>
	<path class="st0" d="M2.99,78.91c-0.67,0.28-0.88-0.36-1.18-0.66c-1.03-1.03-1.51-2.33-1.51-3.78c0-15.05,0-30.11,0.02-45.16
		c0.01-3.79,1.32-7.02,4.12-9.71C9.05,15.14,13.56,10.56,18.08,6c0.57-0.57,0.88-0.64,1.49-0.03c8.28,8.3,16.58,16.59,24.91,24.84
		c0.67,0.66,0.56,0.97-0.04,1.57c-9.09,9.02-18.15,18.06-27.22,27.1c-0.28,0.28-0.51,0.6-0.77,0.9c-0.33,0.28-0.68,0.54-0.99,0.85
		C11.6,65.06,7.75,68.9,3.89,72.74C1.57,75.06,1.43,76.01,2.99,78.91z"/>
	<path class="st1" d="M2.99,78.91c-1.55-2.9-1.41-3.85,0.91-6.16c3.85-3.84,7.71-7.68,11.56-11.52c0.31-0.3,0.66-0.56,0.99-0.85
		c6.39,6.34,12.77,12.69,19.15,19.03c0.05,0.05,0.05,0.14,0.07,0.23c-0.25,0.3-0.59,0.15-0.88,0.15c-9.77,0.01-19.54,0-29.32,0.01
		C4.52,79.8,3.66,79.64,2.99,78.91z"/>
	<path class="st0" d="M46.04,69.67c0-3.19,0.02-6.37-0.02-9.56c-0.01-0.78,0.11-1.12,1.01-1.1c3.27,0.06,6.55-0.09,9.82,0.05
		c5.68,0.25,8.59,5.05,6.5,10.02c-1.07,2.55-3.34,3.82-6.06,4.03c-1.95,0.15-3.91,0.09-5.87,0c-0.94-0.04-1.13,0.29-1.1,1.14
		c0.06,1.83-0.01,3.66,0.03,5.49c0.01,0.63-0.19,0.86-0.82,0.8c-1.14-0.11-2.62,0.49-3.32-0.25c-0.55-0.57-0.18-2.04-0.19-3.1
		C46.03,74.69,46.04,72.18,46.04,69.67z M53.67,69.07c1.11,0,2.03,0.03,2.95-0.01c1.74-0.07,2.83-1.21,2.84-2.92
		c0.01-1.87-0.99-2.97-2.84-3.04c-1.24-0.04-2.48-0.01-3.71-0.01c-2.56,0-2.57,0-2.56,2.51c0.01,1.11-0.37,2.58,0.19,3.23
		C51.21,69.58,52.73,68.96,53.67,69.07z"/>
	<path class="st0" d="M177.58,80.54c-1.77,0-3.27-0.01-4.77,0c-0.48,0-0.66-0.35-0.92-0.65c-1.45-1.67-2.91-3.34-4.57-5.23
		c0,1.82-0.04,3.35,0.02,4.88c0.03,0.75-0.15,1.08-0.98,1.01c-1.07-0.09-2.46,0.32-3.12-0.21c-0.7-0.57-0.21-2.01-0.22-3.07
		c-0.03-3.66,0.02-7.33-0.03-10.99c-0.01-0.83,0.2-1.15,1.06-1.05c1.06,0.12,2.47-0.45,3.09,0.24c0.52,0.59,0.17,1.96,0.19,2.99
		c0.01,0.54,0,1.09,0,1.97c1.38-1.76,2.81-3.04,4.13-4.43c0.53-0.57,1.09-0.78,1.87-0.79c1.14,0,2.3,0.24,3.43-0.15
		c0.15-0.05,0.32-0.05,0.38,0.15c0.09,0.32-0.1,0.52-0.32,0.71c-2.11,1.8-3.86,3.96-5.87,5.86c-0.39,0.37-0.39,0.55-0.04,1.01
		C172.92,75.4,175.31,77.71,177.58,80.54z"/>
	<path class="st0" d="M103.08,68.83c-1.14,0-2.38-0.04-3.61,0.01c-0.7,0.03-0.96-0.13-0.97-0.9c-0.02-2.7-0.05-2.7,2.63-2.7
		c3.27,0,6.54,0.02,9.81-0.02c0.74-0.01,1.03,0.14,1.03,0.96c-0.01,2.64,0.03,2.64-2.57,2.64c-2.01,0-2.01,0-2.01,1.98
		c0,2.9-0.03,5.81,0.02,8.71c0.02,0.86-0.25,1.13-1.07,1.03c-1.06-0.12-2.47,0.45-3.08-0.25c-0.52-0.6-0.18-1.97-0.18-2.99
		C103.08,74.53,103.08,71.76,103.08,68.83z"/>
</g>
</svg>
