<?xml version="1.0" encoding="utf-8"?>
<!-- Generator: Adobe Illustrator 24.1.2, SVG Export Plug-In . SVG Version: 6.00 Build 0)  -->
<svg version="1.1" id="search" xmlns="http://www.w3.org/2000/svg" xmlns:xlink="http://www.w3.org/1999/xlink" x="0px" y="0px"
	 viewBox="0 0 64 64" style="enable-background:new 0 0 64 64;" xml:space="preserve">
<style type="text/css">
	.st0{fill:#CECECE;}
</style>
<g>
	<path class="st0" d="M57.35,54.41L40.56,34.58C42.72,31.61,44,27.96,44,24c0-9.94-8.06-18-18-18S8,14.06,8,24s8.06,18,18,18
		c2.64,0,5.15-0.57,7.41-1.6l16.91,19.97c0.83,0.98,2.31,1.11,3.3,0.27l3.46-2.93C58.07,56.88,58.19,55.4,57.35,54.41z M26,35
		c-6.08,0-11-4.92-11-11c0-6.08,4.92-11,11-11s11,4.92,11,11C37,30.08,32.08,35,26,35z"/>
</g>
</svg>
