<?xml version="1.0" encoding="utf-8"?>
<!-- Generator: Adobe Illustrator 24.1.2, SVG Export Plug-In . SVG Version: 6.00 Build 0)  -->
<svg version="1.1" id="Слой_1" xmlns="http://www.w3.org/2000/svg" xmlns:xlink="http://www.w3.org/1999/xlink" x="0px" y="0px"
	 viewBox="0 0 64 64" style="enable-background:new 0 0 64 64;" xml:space="preserve">
<style type="text/css">
	.st0{fill:#CECECE;}
</style>
<g id="Слой_3">
	<path class="st0" d="M51.1,22.2c-4-5.9-10.7-9.4-17.9-9.5h-2.3C23.9,12.6,17.2,16,13,21.9l-5,7.1c-0.7,1-0.7,2.4,0,3.4l4.8,7.1
		c4,5.9,10.7,9.5,17.8,9.5H33c7.2,0,13.8-3.4,17.9-9.3l5-7.1c0.7-1,0.7-2.4,0-3.4L51.1,22.2z M38.5,44.2c-13,5.7-25.5-6.8-19.8-19.8
		c1.3-3,3.8-5.4,6.7-6.7c13-5.7,25.5,6.8,19.8,19.8C44,40.5,41.5,42.9,38.5,44.2z"/>
</g>
<g id="Слой_2_1_">
	<circle class="st0" cx="32" cy="31" r="7.9"/>
</g>
</svg>
